ply
format ascii 1.0
comment Created by Blender 2.76 (sub 0) - www.blender.org, source file: 'blank.blend'
element vertex 63
property float x
property float y
property float z
property float nx
property float ny
property float nz
element face 30
property list uchar uint vertex_indices
end_header
0.000000 0.333333 0.666667 1.000000 0.000000 -0.000000
0.000000 0.000000 1.000000 1.000000 0.000000 -0.000000
0.000000 0.003200 0.623550 1.000000 0.000000 -0.000000
0.000000 0.268800 0.415700 1.000000 0.000000 -0.000000
0.000000 0.666667 0.333333 1.000000 -0.000000 -0.000000
0.000000 0.534400 0.207850 1.000000 -0.000000 -0.000000
0.000000 1.000000 0.000000 1.000000 -0.000000 -0.000000
0.000000 0.800000 0.000000 1.000000 -0.000000 -0.000000
0.000000 0.050458 0.251372 1.000000 0.000000 -0.000000
0.000000 0.233638 0.167581 1.000000 0.000000 -0.000000
0.000000 0.416819 0.083791 1.000000 0.000000 -0.000000
0.000000 0.600000 0.000000 1.000000 -0.000000 -0.000000
0.000000 0.329060 0.029785 1.000000 0.000000 0.000000
0.000000 0.352706 0.019856 1.000000 0.000000 0.000000
0.000000 0.376353 0.009928 1.000000 0.000000 -0.000000
0.000000 0.400000 0.000000 1.000000 -0.000000 0.000000
0.000000 0.352706 0.019856 -1.000000 0.000000 0.000000
0.000000 0.329060 0.029785 -1.000000 0.000000 0.000000
0.000000 0.703982 0.001436 -1.000000 0.000000 0.000000
0.000000 0.535988 0.000957 -1.000000 0.000000 0.000000
0.000000 0.376353 0.009928 -1.000000 0.000000 0.000000
0.000000 0.367994 0.000479 -1.000000 0.000000 0.000000
0.000000 0.367994 0.000479 1.000000 -0.000000 0.000000
0.000000 0.200000 0.000000 1.000000 -0.000000 0.000000
0.000000 0.535988 0.000957 -0.999892 0.000034 -0.014697
0.000000 0.703982 0.001436 -0.999892 0.000034 -0.014697
0.000027 0.919547 0.000000 -0.999892 0.000034 -0.014697
0.000018 0.613031 0.000000 -0.999892 0.000034 -0.014697
0.000000 0.367994 0.000479 -0.999830 0.000038 -0.018438
0.000000 0.535988 0.000957 -0.999830 0.000038 -0.018438
0.000018 0.613031 0.000000 -0.999830 0.000038 -0.018438
0.000009 0.306516 0.000000 -0.999830 0.000038 -0.018438
0.000000 0.200000 0.000000 -0.997877 0.000085 -0.065127
0.000000 0.367994 0.000479 -0.997877 0.000085 -0.065127
0.000009 0.306516 0.000000 -0.997877 0.000085 -0.065127
0.000000 0.000000 0.000000 -0.997877 0.000085 -0.065127
0.000018 0.613031 0.000000 0.000000 0.000000 1.000000
0.000027 0.919547 0.000000 0.000000 0.000000 1.000000
0.006583 0.543168 0.000000 0.000000 0.000000 1.000000
0.071055 0.362112 0.000000 0.000000 0.000000 1.000000
0.000009 0.306516 0.000000 -0.000000 0.000000 -1.000000
0.000018 0.613031 0.000000 -0.000000 0.000000 -1.000000
0.071055 0.362112 0.000000 -0.000000 0.000000 -1.000000
0.135528 0.181056 0.000000 -0.000000 0.000000 -1.000000
0.000000 0.000000 0.000000 -0.000000 0.000000 -1.000000
0.200000 0.000000 0.000000 -0.000000 0.000000 -1.000000
0.006583 0.543168 0.000000 0.000000 0.000000 -1.000000
0.158060 0.255476 0.000000 0.000000 0.000000 -1.000000
0.238706 0.170318 0.000000 0.000000 0.000000 -1.000000
0.319353 0.085159 0.000000 0.000000 0.000000 -1.000000
0.400000 0.000000 0.000000 -0.000000 0.000000 -1.000000
0.461711 0.473598 0.000000 0.000000 0.000000 -1.000000
0.507807 0.315732 0.000000 0.000000 0.000000 -1.000000
0.553904 0.157866 0.000000 -0.000000 0.000000 -1.000000
0.600000 0.000000 0.000000 -0.000000 0.000000 -1.000000
0.733295 0.734286 0.000000 0.000000 0.000000 -1.000000
0.755530 0.489524 0.000000 0.000000 0.000000 -1.000000
0.777765 0.244762 0.000000 -0.000000 0.000000 -1.000000
0.800000 0.000000 0.000000 -0.000000 0.000000 -1.000000
1.000000 1.000000 0.000000 -0.000000 0.000000 -1.000000
1.000000 0.666667 0.000000 -0.000000 0.000000 -1.000000
1.000000 0.333333 0.000000 -0.000000 0.000000 -1.000000
1.000000 0.000000 0.000000 -0.000000 0.000000 -1.000000
4 0 1 2 3
4 4 0 3 5
4 6 4 5 7
4 3 2 8 9
4 5 3 9 10
4 7 5 10 11
4 9 8 12 13
4 10 9 13 14
4 11 10 14 15
4 16 17 18 19
4 20 16 19 21
4 15 14 22 23
4 24 25 26 27
4 28 29 30 31
4 32 33 34 35
4 36 37 38 39
4 40 41 42 43
4 44 40 43 45
4 42 46 47 48
4 43 42 48 49
4 45 43 49 50
4 48 47 51 52
4 49 48 52 53
4 50 49 53 54
4 52 51 55 56
4 53 52 56 57
4 54 53 57 58
4 56 55 59 60
4 57 56 60 61
4 58 57 61 62
