ply
format ascii 1.0
comment created by dbmsh3d_save_ply
obj_info an dbmsh3d_mesh object
element vertex 435
property double x
property double y
property double z
element face 866
property list uchar int vertex_indices
end_header
7.6195040000000001 4.2849979999999999 0.1489560000000000 
8.6783900000000003 4.3111600000000001 0.1088400000000000 
6.4350290000000001 4.9012849999999997 0.1948570000000000 
9.1208910000000003 4.7688530000000000 0.2044720000000000 
8.9731699999999996 5.4418119999999996 0.2804390000000000 
5.5344040000000003 6.0607899999999999 0.2084520000000000 
6.1350509999999998 6.6587630000000004 0.1073970000000000 
8.1531020000000005 7.0119309999999997 0.0724880000000000 
9.4629930000000009 7.0125970000000004 0.1567910000000000 
5.6954789999999997 7.7810220000000001 0.1583400000000000 
9.7763010000000001 8.0380050000000001 0.1053090000000000 
9.7370520000000003 8.3157990000000002 0.1351060000000000 
7.3230940000000002 8.8078450000000004 0.0986900000000000 
7.9516229999999997 9.0133559999999999 0.1401950000000000 
8.2513339999999999 2.9581110000000002 0.5799690000000000 
9.3195510000000006 3.1925360000000000 0.6104580000000000 
6.4394479999999996 4.1867799999999997 0.4320440000000000 
9.6862860000000008 4.7647729999999999 0.4471180000000000 
9.7035090000000004 5.4631970000000001 0.4680770000000000 
9.9340700000000002 5.9451780000000003 0.4507340000000000 
4.9909460000000001 6.7058759999999999 0.3103230000000000 
4.9883990000000002 6.9963009999999999 0.3231190000000000 
11.2263330000000000 7.3099660000000002 0.3860190000000000 
11.7705050000000000 7.6313469999999999 0.5287860000000000 
10.4404800000000010 8.2736850000000004 0.2435700000000000 
11.5406370000000000 8.5857229999999998 0.5472200000000000 
11.2933650000000000 8.8798969999999997 0.6078130000000001 
10.4156450000000000 9.1923630000000003 0.5031160000000000 
9.3801469999999991 9.4857589999999998 0.4776860000000000 
8.3287119999999994 2.6243810000000001 0.7362650000000000 
9.2529550000000000 2.5827190000000000 0.8709050000000000 
5.8975819999999999 3.5147770000000000 0.9175750000000000 
5.7356860000000003 3.9917750000000001 0.7876750000000000 
10.1143430000000000 4.4115130000000002 0.7222790000000000 
4.5170659999999998 5.1484059999999996 0.7612410000000000 
10.6076690000000000 5.7483779999999998 0.6519890000000000 
4.0986760000000002 6.3725649999999998 0.6562380000000000 
12.4376940000000000 6.6611359999999999 0.9526550000000000 
3.8203350000000000 7.4487750000000004 0.7583190000000000 
12.1228320000000010 7.9483230000000002 0.7038660000000000 
11.9251550000000000 8.5530310000000007 0.7270350000000000 
4.5147130000000004 9.1118039999999993 0.7014770000000000 
4.8610530000000001 9.5648199999999992 0.7739320000000000 
5.7940490000000002 9.9140119999999996 0.7625470000000000 
7.2415490000000000 10.0950770000000000 0.8337260000000000 
8.2278179999999992 1.9132849999999999 1.1573359999999999 
9.8877249999999997 2.3511620000000000 1.3687400000000001 
10.0992359999999990 2.9095260000000001 1.0594230000000000 
5.1177380000000001 3.8417530000000002 1.1740679999999999 
4.5207959999999998 4.8477860000000002 0.9944900000000000 
11.2584050000000000 5.4485939999999999 1.2936110000000001 
3.3697279999999998 6.6021380000000001 1.0443030000000000 
12.7890230000000000 7.1893450000000003 1.1364780000000001 
12.8167680000000000 7.9223999999999997 1.3359610000000000 
3.1033580000000001 8.7972590000000004 1.1432119999999999 
11.6460680000000000 9.4678789999999999 1.1095680000000001 
3.7370369999999999 10.0393969999999990 1.2446740000000001 
5.3597460000000003 10.2886590000000010 1.0390630000000001 
8.1568140000000007 10.5171880000000010 1.1469819999999999 
8.2156059999999993 1.7067310000000000 1.2645759999999999 
9.3775030000000008 1.7462169999999999 1.4417640000000000 
5.9421010000000001 2.2926959999999998 1.5317050000000001 
10.4787260000000000 2.9320300000000001 1.6610259999999999 
4.7448189999999997 4.0492509999999999 1.3794880000000000 
10.5306460000000010 4.7872760000000003 1.6281350000000001 
11.8042710000000000 5.6816399999999998 1.5417080000000001 
2.9502100000000002 6.3588909999999998 1.5223329999999999 
12.9996940000000000 7.3515839999999999 1.5651330000000001 
2.6484480000000001 8.5708760000000002 1.3490350000000000 
12.6737740000000000 8.8471480000000007 1.5532790000000001 
3.0141629999999999 9.7428620000000006 1.4159360000000001 
3.2902209999999998 10.2161209999999990 1.4635160000000000 
4.4303869999999996 10.5536070000000000 1.3856390000000001 
7.2524480000000002 10.8073990000000000 1.4117990000000000 
5.9174550000000004 10.8810110000000010 1.4172830000000001 
8.2826989999999991 0.7390620000000000 1.9685319999999999 
9.5530159999999995 1.1473300000000000 1.9637910000000001 
5.6994530000000001 2.1816220000000000 1.7298199999999999 
4.9193740000000004 3.1776480000000000 1.8079190000000001 
4.2678880000000001 4.1471640000000001 1.8269130000000000 
3.5460530000000001 5.3431170000000003 1.8057710000000000 
11.9766379999999990 5.9542840000000004 1.9324619999999999 
2.5612390000000000 6.9711790000000002 1.7707409999999999 
2.3786749999999999 7.8457100000000004 1.6589810000000000 
2.0745610000000001 8.8486320000000003 1.8137660000000000 
12.5215270000000010 9.3791069999999994 1.9226859999999999 
11.4838000000000000 10.4147140000000000 1.8586630000000000 
4.2478449999999999 10.9524530000000000 1.6333070000000001 
9.2543860000000002 11.1380050000000000 1.7523290000000000 
7.1192310000000001 11.3792100000000000 1.7367159999999999 
8.5922979999999995 0.6454580000000000 2.1201210000000001 
9.8907229999999995 1.1353080000000000 2.2837760000000000 
5.2670050000000002 2.0082059999999999 2.2395320000000001 
4.7020619999999997 3.1676780000000000 2.1288480000000001 
4.1494260000000001 4.1139479999999997 2.1375240000000000 
3.4125060000000000 5.3570609999999999 2.1862029999999999 
11.9428170000000000 6.0040040000000001 2.1420689999999998 
13.0892860000000000 6.8712850000000003 1.9692149999999999 
2.0639669999999999 7.5692360000000001 2.1152959999999998 
12.9518310000000000 8.7990960000000005 2.1799119999999998 
12.5286589999999990 9.6869540000000001 2.1874359999999999 
11.5196810000000000 10.7533710000000000 2.1553640000000001 
4.1052999999999997 11.2051690000000000 1.8976200000000001 
5.4369480000000001 11.5075220000000000 1.9072739999999999 
8.8991000000000007 11.5270569999999990 1.9694810000000000 
6.6397500000000003 0.5752389999999999 2.3694099999999998 
10.1003600000000000 1.1422880000000000 2.6003400000000001 
10.4098960000000000 2.0743749999999999 2.5741120000000000 
10.2881079999999990 3.1827399999999999 2.5123829999999998 
10.3223710000000000 4.1217110000000003 2.5111940000000001 
10.5708680000000010 5.3434759999999999 2.4452099999999999 
11.0503260000000000 5.8076429999999997 2.6202410000000000 
2.1813330000000000 6.9621519999999997 2.3310740000000001 
1.8068910000000000 7.5619860000000001 2.4639750000000000 
1.5766230000000001 8.9086069999999999 2.3793329999999999 
12.6029199999999990 9.6974590000000003 2.4695220000000000 
11.9589450000000000 10.7591509999999990 2.5053790000000000 
11.0795929999999990 11.3027620000000000 2.4749400000000001 
10.4451740000000000 11.6154850000000000 2.4344839999999999 
8.3580579999999998 11.9795540000000000 2.4165610000000002 
8.6154449999999994 0.2826080000000000 2.6792370000000001 
5.5109550000000000 1.1817620000000000 2.6551700000000000 
4.9072810000000002 2.2362229999999998 2.7801610000000001 
4.3671620000000004 3.2348960000000000 2.8350279999999999 
3.9243280000000000 4.3831400000000000 2.8006840000000000 
3.1837019999999998 5.4162949999999999 2.8839750000000000 
2.3219180000000001 6.4309339999999997 2.6686860000000001 
1.7793369999999999 7.2269139999999998 2.8310200000000001 
1.3909929999999999 8.2023530000000004 2.6804619999999999 
1.3702049999999999 9.3652320000000007 2.6074039999999998 
1.3243739999999999 10.0685590000000000 2.8469699999999998 
1.7703739999999999 10.7882170000000000 2.7597570000000000 
11.4482450000000000 11.3299590000000010 2.7955160000000001 
5.1394869999999999 12.0279870000000000 2.8009010000000001 
7.8892790000000002 0.0248380000000000 2.9987010000000001 
9.3009249999999994 0.3962460000000000 3.1497400000000000 
10.3400870000000000 1.4199710000000001 3.1585130000000001 
10.2973780000000000 2.6333280000000001 3.1071380000000000 
4.0300209999999996 3.8101590000000001 3.0943200000000002 
3.5074450000000001 4.9402840000000001 3.1886260000000002 
2.6234169999999999 5.9653429999999998 3.1684790000000000 
12.3418340000000000 6.4901090000000003 3.1608209999999999 
13.1523580000000000 7.4782250000000001 3.2399149999999999 
1.1192359999999999 8.7280990000000003 2.9307750000000001 
1.0150809999999999 9.4857849999999999 3.1061839999999998 
12.3626830000000010 10.4715870000000000 3.0814330000000001 
2.4742389999999999 11.5377990000000000 2.9036360000000001 
4.1385930000000002 11.9935790000000000 3.0894499999999998 
5.2363900000000001 12.1472460000000010 3.1611739999999999 
7.6194519999999999 0.0123680000000000 3.3321820000000000 
5.7544320000000004 0.6651550000000001 3.4241000000000001 
10.3051140000000000 1.4172290000000001 3.4081510000000002 
10.3297030000000000 2.6367150000000001 3.4079590000000000 
10.1743100000000000 3.4966629999999999 3.4174859999999998 
10.4015299999999990 4.6966919999999996 3.4314260000000001 
2.5947930000000001 6.0066119999999996 3.4307070000000000 
12.1813040000000010 6.5579250000000000 3.4719220000000002 
1.2302360000000001 7.6886510000000001 3.2765759999999999 
0.9499370000000000 8.2549720000000004 3.4603250000000001 
0.8822350000000000 9.4554200000000002 3.4369570000000000 
1.0511200000000001 10.3566310000000000 3.4119989999999998 
1.6755899999999999 11.3907520000000010 3.3556870000000001 
3.8300519999999998 12.0010100000000010 3.2972340000000000 
8.1787229999999997 12.3966530000000010 3.4773090000000000 
6.6596669999999998 0.2714570000000000 3.7053289999999999 
9.8848299999999991 0.8314830000000000 3.7016789999999999 
4.5378829999999999 2.1676820000000001 3.5839020000000001 
3.9458720000000000 3.2148789999999998 3.6914060000000002 
3.5793349999999999 4.4428510000000001 3.6673480000000001 
3.0401680000000000 5.3564090000000002 3.7377039999999999 
11.7800090000000000 6.3143680000000000 3.7984119999999999 
1.5279790000000000 7.1547989999999997 3.6419860000000002 
0.8942470000000000 8.2618819999999999 3.7533970000000001 
12.9762489999999990 8.9138730000000006 3.8283619999999998 
0.7977780000000000 9.7993269999999999 3.6929300000000000 
12.2653300000000010 10.7424190000000000 3.6968679999999998 
1.6740990000000000 11.6070049999999990 3.6647539999999998 
3.5667730000000000 12.2051760000000000 3.6838050000000000 
7.0330130000000004 12.4124960000000010 3.5999660000000002 
8.1025109999999998 0.2096900000000000 3.9934289999999999 
9.8582599999999996 0.8347290000000001 3.9025140000000000 
10.3100270000000000 2.0341580000000001 4.0315640000000004 
10.2422930000000000 2.9491969999999998 4.0035710000000000 
10.3381950000000010 4.1268870000000000 4.0315430000000001 
10.6450800000000000 4.9846659999999998 4.0415330000000003 
11.4839620000000000 6.0124560000000002 4.1088350000000000 
1.5179819999999999 7.0736720000000002 3.8863699999999999 
12.7168040000000000 7.9414090000000002 4.0635349999999999 
12.8329690000000000 9.1685250000000007 4.0926980000000004 
12.4183610000000010 10.4430700000000010 4.0019830000000001 
11.8864889999999990 11.1799140000000000 3.8740809999999999 
11.1708590000000000 11.8029280000000000 4.0302860000000003 
6.0461109999999998 12.5317790000000000 4.0261730000000000 
8.5889840000000000 0.3242930000000000 4.2070249999999998 
5.3225069999999999 1.3828330000000000 4.3551679999999999 
4.3359790000000000 2.3421810000000001 4.3630339999999999 
3.6044610000000001 3.3811689999999999 4.1619240000000000 
3.3990570000000000 4.1376070000000000 4.1268729999999998 
10.6778099999999990 4.9796529999999999 4.3626779999999998 
11.4583390000000000 6.0461029999999996 4.4087040000000002 
1.4864900000000001 6.9679419999999999 4.3710120000000003 
12.5566470000000000 7.8934910000000000 4.3263949999999998 
12.6206460000000010 9.1516099999999998 4.3490510000000002 
12.3799300000000000 10.4298319999999990 4.2785190000000002 
11.6909360000000010 11.3623689999999990 4.3726440000000002 
2.4710420000000002 12.2122030000000010 4.1330710000000002 
3.8013409999999999 12.3943720000000010 4.2294570000000000 
8.9357140000000008 12.4758540000000000 4.4102629999999996 
8.7428369999999997 0.5313040000000000 4.5001889999999998 
9.8896700000000006 1.1626920000000001 4.6635510000000000 
10.2195690000000000 2.3137430000000001 4.6476270000000000 
10.3236130000000000 3.2365750000000002 4.6022840000000000 
10.4830310000000000 4.4311680000000004 4.6074570000000001 
11.2066599999999990 5.5608199999999997 4.5375030000000001 
11.5167000000000000 6.3578979999999996 4.7146200000000000 
11.9143019999999990 7.2757579999999997 4.7573660000000002 
0.8429980000000000 8.1338030000000003 4.6622570000000003 
12.4388320000000000 8.8455420000000000 4.6051080000000004 
0.4860860000000000 10.1314860000000010 4.5557999999999996 
12.1762760000000000 10.6282640000000000 4.4782089999999997 
1.5989469999999999 12.0478320000000000 4.5756449999999997 
4.1302120000000002 12.5171790000000000 4.6637360000000001 
7.2719909999999999 0.7802330000000000 4.8792770000000001 
9.7328180000000000 1.1891719999999999 4.9292369999999996 
4.8249430000000002 2.1684770000000002 4.8215070000000004 
3.7378779999999998 3.0686719999999998 4.8683680000000003 
3.1619830000000002 4.1277480000000004 4.9432580000000002 
2.6864379999999999 5.3913260000000003 4.9865680000000001 
11.0890039999999990 5.9255110000000002 5.1406630000000000 
11.5696670000000010 6.9661190000000000 5.0401730000000002 
11.8777000000000010 8.1963570000000008 5.1032919999999997 
0.1860590000000000 9.1231179999999998 5.1179189999999997 
0.1579290000000000 9.7526119999999992 5.0168710000000001 
12.0043940000000000 10.5090550000000000 5.0125310000000001 
11.2690690000000000 11.6895089999999990 4.9616179999999996 
10.4220089999999990 12.2324930000000000 4.9723879999999996 
6.5958620000000003 12.6739070000000000 4.8906010000000002 
8.1911729999999991 0.8856430000000000 5.0625910000000003 
9.5800029999999996 1.2040510000000000 5.1620770000000000 
5.9917230000000004 1.8989840000000000 5.3438160000000003 
4.2636900000000004 2.9157289999999998 5.3096870000000003 
10.4463300000000000 3.8446859999999998 5.2628269999999997 
10.6986720000000000 5.0823640000000001 5.2918760000000002 
11.0428650000000010 6.0275049999999997 5.3845080000000003 
1.3661250000000000 6.9701740000000001 5.2496700000000001 
0.6386720000000000 8.2198919999999998 5.3056880000000000 
0.1167120000000000 9.1627609999999997 5.3845150000000004 
11.9264630000000000 10.1141270000000000 5.3293400000000002 
0.4711710000000000 11.0372970000000010 5.2989740000000003 
10.7645100000000000 11.9207909999999990 5.2579789999999997 
4.7481739999999997 12.7890500000000000 5.1407489999999996 
4.3889670000000001 12.7811270000000000 5.3241250000000004 
8.0846339999999994 1.3970929999999999 5.6442889999999997 
6.2446869999999999 2.0012530000000002 5.5823590000000003 
10.1222619999999990 2.5948380000000002 5.6133290000000002 
3.6974589999999998 3.5834500000000000 5.5383740000000001 
10.6001100000000010 4.4753410000000002 5.5586710000000004 
2.3805770000000002 5.7517820000000004 5.6024180000000001 
10.9618199999999990 6.5528230000000001 5.7734019999999999 
11.3366120000000010 7.5692069999999996 5.6657209999999996 
11.5894460000000010 8.5031189999999999 5.6473899999999997 
11.7660470000000000 9.7909539999999993 5.6086060000000000 
0.3226950000000000 10.9404120000000000 5.6181880000000000 
10.7717139999999990 11.7010340000000000 5.5514690000000000 
9.7833050000000004 12.2445629999999990 5.6382750000000001 
5.2296420000000001 12.8745720000000010 5.3313759999999997 
8.8302639999999997 1.6772849999999999 5.9062510000000001 
6.2866999999999997 2.3105240000000000 5.8742450000000002 
10.0960490000000010 2.8892810000000000 5.9202990000000000 
3.6298680000000001 3.8793449999999998 5.8628499999999999 
10.6618450000000000 4.8265240000000000 5.9001210000000004 
10.5970070000000000 5.7403190000000004 5.9444179999999998 
1.3721390000000000 6.9588159999999997 5.9292160000000003 
0.7891010000000001 7.8290530000000000 5.9605300000000003 
11.4743700000000000 8.7224839999999997 5.9380400000000000 
11.5650490000000000 10.0997190000000000 5.9129259999999997 
0.3322670000000000 10.9668820000000000 5.8419299999999996 
10.0815670000000000 11.7530470000000000 6.0851680000000004 
2.2225050000000000 12.4194920000000000 5.9251610000000001 
6.1149230000000001 12.8757769999999990 5.9596109999999998 
8.3307909999999996 1.8226880000000001 6.0634980000000001 
7.6824159999999999 2.2187679999999999 6.3446460000000000 
6.0422580000000004 2.8328519999999999 6.3244520000000000 
4.0364589999999998 3.8403659999999999 6.2120499999999996 
3.0306560000000000 4.7281709999999997 6.2345680000000003 
10.5416460000000000 5.7508340000000002 6.2220000000000004 
1.4049000000000000 7.0093110000000003 6.2136360000000002 
0.8269610000000000 7.8409449999999996 6.2943499999999997 
11.2986020000000010 8.7098840000000006 6.2151719999999999 
11.1812050000000000 9.9143209999999993 6.4153440000000002 
10.8339529999999990 10.7304110000000000 6.2844850000000001 
9.7179730000000006 11.7693169999999990 6.3081189999999996 
2.3164250000000002 12.5201689999999990 6.2386169999999996 
6.9534459999999996 12.7147050000000000 6.2311560000000004 
7.1760229999999998 2.6124950000000000 6.5409199999999998 
5.6180089999999998 3.2491690000000002 6.4918319999999996 
10.4314529999999990 3.7881740000000002 6.5322469999999999 
10.7459340000000000 4.8511800000000003 6.5140719999999996 
2.2102029999999999 6.0179090000000004 6.5233439999999998 
1.6642370000000000 6.8037690000000000 6.6775070000000003 
0.8644790000000000 7.8005500000000003 6.5782990000000003 
10.7545459999999990 8.4768290000000004 6.7157439999999999 
0.0718660000000000 9.3805530000000008 6.5579760000000000 
0.1146650000000000 10.4102510000000010 6.5684069999999997 
10.0188419999999990 11.0881220000000000 6.6239489999999996 
1.2845180000000000 11.9031310000000000 6.5550459999999999 
3.2614510000000001 12.5874550000000000 6.5345180000000003 
6.1045199999999999 12.6891700000000010 6.5210299999999997 
9.3931740000000001 2.6856990000000001 6.7569800000000004 
9.9454530000000005 3.2296299999999998 6.8312700000000000 
4.4234090000000004 4.1059729999999997 6.8326750000000001 
10.8962160000000010 4.8756409999999999 6.6962219999999997 
2.5361440000000002 5.4996660000000004 6.8385020000000001 
1.8870730000000000 6.5923220000000002 6.8802009999999996 
10.4268410000000000 7.6390680000000000 6.9184210000000004 
0.2793170000000000 8.8393200000000007 6.8242490000000000 
0.0555940000000000 9.9873840000000005 6.8683889999999996 
0.4366870000000000 10.9773049999999990 6.6970440000000000 
1.1660480000000000 11.6364790000000000 6.8598100000000004 
7.8118540000000003 12.1525789999999990 6.8165560000000003 
4.6052770000000001 12.6981839999999990 6.6823720000000000 
9.4727370000000004 2.9733660000000000 7.0812939999999998 
10.0910860000000010 3.5270640000000002 7.1366719999999999 
4.0676300000000003 4.4781449999999996 7.1317690000000002 
10.9658479999999990 5.1263899999999998 7.1720170000000003 
2.2696260000000001 6.0381039999999997 7.1391980000000004 
1.5456870000000000 7.1159980000000003 7.1391359999999997 
10.1981330000000000 8.1920459999999995 7.1165200000000004 
10.3078990000000010 9.0470860000000002 7.1579179999999996 
10.2800210000000000 9.9498069999999998 7.1331540000000002 
8.8831399999999991 11.1239270000000000 7.2886790000000001 
7.1935609999999999 12.0102639999999990 7.1843839999999997 
3.3352789999999999 12.2570560000000000 7.2232450000000004 
8.4858239999999991 3.0810290000000000 7.3149449999999998 
7.8631120000000001 3.4480700000000000 7.5193060000000003 
5.9900830000000003 4.0381039999999997 7.5792970000000004 
10.9057870000000000 4.8574440000000001 7.5018739999999999 
2.4860780000000000 5.7853399999999997 7.4244009999999996 
10.5785820000000010 6.3709360000000004 7.4550939999999999 
10.2548820000000000 7.2523260000000001 7.5222720000000001 
10.0057080000000000 8.2286900000000003 7.3897149999999998 
10.0389909999999990 8.7850050000000000 7.3519030000000001 
9.8702380000000005 9.7931620000000006 7.5586469999999997 
9.1705579999999998 10.6918399999999990 7.5269579999999996 
7.5240010000000002 11.4822570000000010 7.5921120000000002 
3.2973550000000000 12.0171180000000000 7.5527160000000002 
8.9285250000000005 3.4190870000000002 7.6212609999999996 
8.6273759999999999 3.7184379999999999 7.8924380000000003 
10.4675860000000010 4.3666679999999998 7.7358680000000000 
3.9077620000000000 4.9576539999999998 7.9301789999999999 
10.7585330000000000 5.9644029999999999 7.7515120000000000 
10.2609090000000000 6.9708930000000002 7.7596800000000004 
9.8861460000000001 7.7746729999999999 7.9250540000000003 
9.5707389999999997 8.7854530000000004 7.9119190000000001 
0.3558940000000000 9.6905970000000003 7.7200170000000004 
0.8534450000000000 10.7208279999999990 7.7639659999999999 
7.8122189999999998 11.2219420000000000 7.8471270000000004 
4.2547309999999996 11.9277300000000000 7.7297729999999998 
9.1790819999999993 3.7013950000000002 7.8513019999999996 
8.8992570000000004 4.0765479999999998 8.1099040000000002 
10.4969660000000000 4.6231179999999998 7.9568459999999996 
10.7239480000000000 5.4012000000000002 8.0271600000000003 
10.5497049999999990 6.1520450000000002 8.1592149999999997 
10.0251720000000000 7.2633010000000002 8.0896019999999993 
1.2749640000000000 8.2052029999999991 8.0518630000000009 
0.7851090000000000 9.4944640000000007 8.1104489999999991 
9.0349989999999991 10.0666420000000000 8.1694669999999991 
1.5891240000000000 11.0387850000000010 8.0677970000000006 
3.4134490000000000 11.6799760000000000 8.0577550000000002 
5.7140700000000004 11.7976139999999990 7.9185660000000002 
8.9454239999999992 4.4651050000000003 8.3936790000000006 
4.3540289999999997 5.1008979999999999 8.3980530000000009 
10.3311949999999990 5.4042859999999999 8.5068129999999993 
10.4179830000000000 6.0347949999999999 8.3426369999999999 
2.3787159999999998 6.9435659999999997 8.4247239999999994 
9.5193469999999998 7.9614549999999999 8.3821010000000005 
9.2556940000000001 8.8755140000000008 8.3870880000000003 
8.6994159999999994 9.8841160000000006 8.5272659999999991 
2.1333289999999998 11.0381690000000000 8.3897180000000002 
3.4661860000000000 11.5574830000000000 8.3612169999999999 
6.7406699999999997 4.6770110000000003 8.5208929999999992 
9.4864909999999991 4.6766370000000004 8.5268420000000003 
10.0147239999999990 5.4132230000000003 8.7017819999999997 
2.9528610000000000 6.6638169999999999 8.7593280000000000 
9.7865059999999993 7.2021090000000001 8.6512639999999994 
9.2864690000000003 8.2827540000000006 8.7112890000000007 
1.3998850000000000 9.1399530000000002 8.7210640000000001 
8.5966369999999994 9.7382460000000002 8.7695260000000008 
2.0847810000000000 10.7665659999999990 8.7457680000000000 
6.0765599999999997 11.3843450000000000 8.7294859999999996 
6.6517499999999998 4.9900169999999999 8.8566249999999993 
9.3862330000000007 4.9966229999999996 8.7979299999999991 
9.5417360000000002 5.4207169999999998 8.9762769999999996 
9.7814759999999996 6.3444779999999996 8.9339180000000002 
9.4747229999999991 7.2873089999999996 8.9810400000000001 
9.1811740000000004 7.8906700000000001 8.9660770000000003 
8.8328659999999992 8.7129130000000004 8.9114889999999995 
1.6120920000000001 9.7597649999999998 8.9198620000000002 
2.2708919999999999 10.7208989999999990 8.9801160000000007 
3.5259580000000001 11.1815669999999990 9.0090909999999997 
6.6456670000000004 5.2943699999999998 9.1551600000000004 
4.8142990000000001 5.5764480000000001 9.1575600000000001 
4.0188509999999997 5.9182210000000000 9.1492480000000000 
4.0463430000000002 6.6500290000000000 9.4113340000000001 
3.8539900000000000 7.1463960000000002 9.4627470000000002 
8.8839520000000007 7.9008950000000002 9.2366080000000004 
8.4474859999999996 8.5462030000000002 9.2917280000000009 
2.1448619999999998 9.4850300000000001 9.3158329999999996 
1.9380090000000001 10.0064340000000000 9.1281680000000005 
2.7889560000000002 10.6252429999999990 9.2840969999999992 
4.0707800000000001 11.0347680000000000 9.3450129999999998 
7.1786390000000004 5.7779049999999996 9.5315209999999997 
5.3457670000000004 6.0940979999999998 9.5848099999999992 
8.9443669999999997 6.3758460000000001 9.4766960000000005 
4.1353179999999998 7.2921880000000003 9.5716730000000005 
7.6247930000000004 7.5126369999999998 9.7288929999999993 
3.3562500000000002 8.5440590000000007 9.6432629999999993 
7.8859469999999998 8.7300229999999992 9.5463570000000004 
3.1530390000000001 9.7448320000000006 9.6552469999999992 
6.3818919999999997 10.3783100000000010 9.6796199999999999 
4.4329070000000002 10.9307890000000010 9.5883280000000006 
6.2513300000000003 6.1011230000000003 9.6629529999999999 
7.8616799999999998 6.3676440000000003 9.7306249999999999 
7.9452559999999997 6.6492490000000002 9.7529629999999994 
5.4489359999999998 7.3141369999999997 9.9241499999999991 
4.9841129999999998 7.8718959999999996 9.9869579999999996 
4.1565310000000002 8.5377069999999993 9.8589160000000007 
7.0177180000000003 8.9012539999999998 9.8249549999999992 
6.7983750000000001 9.4964440000000003 9.8118680000000005 
6.5384650000000004 9.9208330000000000 9.7038469999999997 
5.2058080000000002 10.6850000000000000 9.7929390000000005 
6.1865379999999996 7.6341330000000003 10.0391239999999990 
4.8234909999999998 8.2942060000000009 9.9964849999999998 
4.7358029999999998 9.1697150000000001 9.9928869999999996 
5.7512900000000000 9.7210230000000006 9.9207649999999994 
3 325 313 298 
3 312 325 298 
3 337 325 312 
3 58 73 44 
3 351 363 339 
3 363 352 339 
3 433 432 426 
3 57 43 42 
3 57 72 42 
3 71 70 56 
3 57 74 43 
3 139 168 124 
3 138 168 124 
3 347 358 346 
3 358 359 347 
3 143 129 114 
3 128 143 114 
3 143 144 129 
3 144 130 129 
3 404 414 403 
3 260 259 230 
3 256 270 242 
3 143 158 128 
3 157 158 128 
3 9 21 6 
3 192 236 178 
3 99 85 69 
3 48 32 31 
3 31 32 16 
3 265 236 192 
3 190 219 175 
3 204 219 190 
3 191 204 190 
3 234 204 191 
3 279 265 236 
3 161 146 131 
3 161 160 131 
3 169 168 139 
3 169 139 125 
3 84 83 68 
3 408 407 397 
3 397 407 386 
3 275 261 247 
3 431 427 415 
3 417 427 415 
3 331 344 319 
3 70 56 54 
3 54 56 41 
3 54 41 38 
3 122 123 93 
3 16 32 2 
3 250 251 221 
3 16 2 0 
3 411 421 400 
3 27 28 11 
3 24 27 11 
3 27 26 24 
3 24 11 10 
3 406 405 396 
3 153 182 152 
3 182 181 152 
3 210 182 181 
3 138 124 94 
3 211 210 182 
3 326 299 286 
3 300 326 286 
3 364 326 300 
3 374 364 326 
3 282 294 267 
3 220 205 176 
3 368 357 345 
3 216 244 200 
3 335 310 295 
3 317 303 276 
3 98 112 82 
3 112 113 98 
3 127 113 112 
3 126 127 112 
3 166 123 122 
3 312 298 257 
3 284 312 257 
3 58 44 13 
3 13 44 12 
3 342 329 328 
3 357 345 332 
3 315 364 300 
3 280 266 252 
3 184 183 154 
3 212 184 183 
3 166 167 123 
3 326 313 299 
3 313 299 298 
3 328 329 289 
3 290 329 289 
3 304 329 290 
3 343 329 304 
3 304 290 277 
3 291 304 277 
3 277 290 263 
3 291 277 264 
3 264 277 263 
3 342 343 329 
3 366 343 342 
3 211 254 210 
3 280 281 252 
3 132 117 101 
3 116 132 101 
3 332 357 320 
3 369 357 320 
3 320 369 307 
3 304 330 291 
3 330 343 304 
3 27 55 26 
3 55 40 26 
3 26 40 25 
3 392 391 382 
3 301 328 289 
3 327 328 301 
3 327 314 301 
3 319 331 293 
3 219 233 204 
3 234 233 204 
3 195 167 166 
3 301 289 288 
3 53 67 52 
3 187 217 173 
3 402 401 371 
3 192 178 148 
3 131 160 130 
3 160 144 130 
3 391 382 381 
3 391 381 370 
3 332 320 306 
3 48 78 31 
3 78 63 48 
3 61 78 31 
3 385 395 375 
3 394 395 375 
3 309 308 268 
3 309 321 308 
3 309 296 268 
3 322 309 296 
3 133 147 102 
3 103 133 102 
3 310 295 283 
3 295 283 240 
3 255 283 240 
3 283 269 255 
3 240 255 225 
3 356 366 343 
3 356 343 330 
3 397 386 365 
3 237 222 179 
3 222 179 164 
3 179 164 149 
3 52 53 39 
3 60 46 30 
3 47 46 30 
3 30 47 15 
3 60 45 30 
3 45 30 29 
3 29 30 15 
3 257 284 227 
3 372 373 361 
3 341 328 327 
3 341 340 327 
3 403 404 383 
3 212 198 184 
3 394 384 375 
3 189 219 175 
3 189 175 145 
3 259 230 215 
3 215 230 201 
3 322 321 309 
3 215 201 156 
3 232 246 231 
3 367 355 318 
3 213 199 185 
3 421 412 400 
3 421 424 412 
3 281 253 252 
3 62 47 46 
3 372 361 360 
3 360 361 336 
3 348 360 336 
3 296 268 241 
3 353 341 340 
3 144 159 143 
3 284 227 226 
3 112 126 82 
3 220 278 205 
3 433 434 432 
3 434 433 430 
3 430 434 419 
3 434 429 419 
3 434 429 428 
3 167 138 123 
3 123 138 94 
3 123 94 93 
3 341 342 328 
3 353 342 341 
3 298 299 272 
3 286 299 272 
3 272 298 257 
3 172 158 157 
3 139 124 95 
3 125 139 95 
3 347 346 333 
3 334 347 333 
3 392 393 382 
3 413 393 392 
3 164 149 105 
3 150 164 105 
3 150 121 105 
3 239 224 194 
3 136 107 106 
3 433 426 418 
3 418 426 416 
3 8 19 4 
3 8 7 4 
3 18 19 4 
3 213 228 199 
3 228 214 199 
3 28 58 13 
3 13 28 11 
3 58 88 28 
3 104 88 58 
3 217 230 201 
3 201 217 187 
3 181 152 151 
3 379 368 357 
3 379 410 357 
3 399 410 379 
3 410 369 357 
3 369 331 307 
3 307 331 293 
3 98 83 82 
3 98 84 83 
3 55 86 27 
3 110 109 64 
3 245 244 216 
3 273 245 244 
3 258 271 243 
3 149 179 134 
3 203 219 189 
3 259 229 215 
3 259 258 229 
3 258 243 229 
3 430 433 420 
3 420 433 418 
3 121 105 77 
3 121 92 77 
3 289 290 275 
3 275 289 261 
3 289 274 261 
3 289 288 274 
3 14 16 0 
3 1 14 0 
3 31 16 14 
3 31 61 14 
3 21 20 6 
3 20 6 5 
3 310 323 283 
3 158 159 143 
3 200 216 186 
3 362 350 338 
3 154 183 153 
3 183 182 153 
3 211 183 182 
3 211 212 183 
3 154 153 109 
3 154 110 109 
3 109 153 108 
3 137 153 108 
3 153 152 137 
3 25 26 24 
3 24 25 22 
3 23 25 22 
3 19 35 18 
3 56 72 42 
3 42 56 41 
3 87 72 56 
3 71 87 56 
3 210 209 181 
3 230 260 217 
3 79 80 49 
3 316 354 302 
3 287 300 286 
3 55 69 40 
3 69 85 55 
3 355 318 317 
3 126 82 66 
3 66 82 51 
3 176 205 146 
3 161 176 146 
3 205 177 146 
3 162 177 146 
3 205 206 177 
3 140 169 125 
3 256 241 212 
3 212 241 211 
3 242 256 212 
3 212 242 198 
3 426 416 414 
3 366 377 356 
3 296 256 241 
3 237 252 222 
3 266 252 237 
3 238 266 237 
3 238 237 208 
3 253 252 222 
3 385 396 376 
3 405 396 385 
3 396 387 376 
3 405 395 385 
3 405 395 394 
3 406 396 387 
3 419 430 389 
3 424 431 421 
3 425 431 424 
3 425 424 414 
3 424 414 403 
3 412 424 403 
3 28 88 27 
3 86 88 27 
3 79 63 49 
3 416 414 404 
3 404 416 383 
3 174 160 144 
3 174 159 144 
3 218 174 160 
3 293 307 279 
3 279 293 236 
3 418 416 407 
3 402 403 383 
3 273 272 244 
3 272 257 244 
3 244 257 200 
3 257 227 200 
3 200 227 155 
3 186 200 155 
3 51 38 36 
3 38 36 21 
3 36 21 20 
3 21 38 9 
3 38 41 9 
3 42 41 9 
3 43 42 9 
3 233 219 203 
3 226 227 197 
3 226 197 196 
3 408 397 388 
3 408 398 388 
3 398 388 378 
3 408 409 398 
3 97 67 52 
3 430 420 389 
3 186 216 172 
3 157 171 127 
3 157 127 113 
3 128 157 113 
3 69 53 40 
3 40 53 39 
3 99 69 53 
3 39 40 25 
3 39 25 23 
3 39 52 23 
3 37 52 23 
3 23 37 22 
3 52 97 37 
3 315 300 287 
3 306 332 292 
3 386 365 364 
3 364 365 315 
3 361 336 324 
3 169 227 155 
3 155 169 140 
3 197 227 169 
3 197 169 168 
3 421 431 415 
3 402 383 349 
3 371 402 349 
3 305 278 220 
3 305 248 220 
3 413 394 393 
3 413 405 394 
3 413 423 405 
3 393 394 384 
3 422 423 413 
3 49 80 34 
3 270 296 256 
3 297 296 270 
3 43 44 12 
3 74 44 43 
3 74 73 44 
3 89 74 73 
3 43 12 9 
3 12 9 6 
3 90 120 75 
3 33 47 15 
3 17 33 15 
3 147 148 133 
3 306 320 251 
3 49 63 48 
3 48 49 32 
3 15 14 1 
3 29 15 14 
3 15 17 1 
3 3 17 1 
3 127 171 126 
3 235 234 191 
3 161 176 160 
3 70 84 68 
3 70 68 54 
3 122 121 92 
3 93 122 92 
3 191 190 132 
3 190 175 132 
3 235 207 191 
3 191 207 118 
3 191 132 118 
3 106 107 91 
3 99 67 53 
3 99 142 67 
3 346 333 321 
3 333 321 308 
3 235 249 234 
3 263 249 234 
3 263 290 234 
3 234 290 233 
3 275 290 233 
3 275 247 233 
3 400 411 390 
3 336 324 311 
3 170 215 156 
3 281 294 267 
3 267 281 253 
3 382 393 373 
3 382 373 372 
3 141 111 96 
3 165 136 106 
3 165 135 106 
3 408 409 407 
3 418 409 407 
3 97 142 67 
3 315 354 302 
3 354 365 315 
3 64 110 50 
3 284 269 226 
3 255 269 226 
3 226 255 225 
3 225 226 196 
3 284 283 269 
3 284 323 283 
3 312 323 284 
3 135 106 91 
3 135 91 76 
3 273 286 272 
3 287 286 273 
3 5 6 2 
3 340 352 339 
3 353 352 340 
3 97 81 37 
3 137 108 107 
3 128 113 98 
3 128 98 84 
3 128 114 84 
3 114 129 84 
3 84 129 70 
3 361 350 324 
3 338 350 324 
3 324 338 285 
3 361 362 350 
3 373 362 361 
3 367 345 318 
3 319 330 291 
3 344 330 319 
3 335 380 334 
3 260 288 259 
3 288 274 260 
3 261 274 260 
3 261 260 217 
3 247 261 217 
3 301 288 259 
3 301 314 259 
3 259 314 258 
3 383 349 337 
3 337 349 312 
3 349 323 312 
3 349 371 323 
3 218 176 160 
3 278 206 205 
3 7 12 6 
3 12 13 7 
3 13 11 7 
3 6 7 2 
3 382 381 372 
3 372 381 360 
3 22 24 10 
3 415 423 405 
3 406 415 405 
3 417 415 406 
3 406 417 387 
3 254 241 211 
3 351 362 338 
3 351 339 338 
3 233 247 203 
3 203 247 202 
3 247 217 202 
3 65 81 37 
3 78 79 63 
3 134 149 105 
3 334 335 294 
3 335 294 282 
3 295 335 282 
3 333 334 294 
3 333 294 281 
3 103 89 74 
3 360 381 348 
3 245 231 216 
3 246 245 231 
3 432 426 414 
3 432 425 414 
3 432 431 425 
3 434 432 431 
3 431 434 427 
3 428 434 427 
3 428 427 417 
3 417 428 387 
3 253 267 239 
3 239 253 222 
3 239 222 194 
3 194 222 164 
3 164 194 150 
3 235 264 207 
3 264 249 235 
3 264 263 249 
3 355 354 316 
3 317 355 316 
3 316 317 303 
3 355 365 354 
3 397 365 355 
3 375 353 352 
3 134 120 75 
3 105 134 75 
3 229 243 214 
3 243 228 214 
3 215 229 214 
3 214 215 170 
3 105 75 59 
3 240 224 195 
3 225 240 195 
3 118 132 117 
3 189 188 145 
3 145 188 115 
3 316 303 302 
3 166 122 121 
3 347 380 334 
3 20 36 5 
3 214 199 170 
3 61 105 59 
3 77 105 61 
3 375 363 352 
3 375 384 363 
3 250 265 192 
3 250 221 192 
3 251 265 250 
3 192 221 148 
3 320 265 251 
3 101 116 86 
3 116 100 86 
3 101 117 86 
3 78 77 61 
3 92 78 77 
3 92 93 78 
3 356 344 330 
3 136 137 107 
3 134 179 120 
3 282 295 240 
3 240 282 224 
3 239 282 224 
3 267 282 239 
3 206 177 162 
3 319 291 264 
3 378 388 367 
3 388 397 367 
3 367 397 355 
3 367 378 345 
3 368 378 345 
3 379 378 368 
3 399 379 378 
3 184 185 111 
3 184 154 111 
3 154 111 110 
3 213 185 184 
3 198 213 184 
3 213 242 198 
3 242 228 213 
3 110 111 50 
3 193 237 179 
3 208 237 193 
3 186 172 157 
3 36 80 34 
3 51 80 36 
3 66 80 51 
3 36 34 5 
3 5 34 2 
3 34 32 2 
3 34 49 32 
3 1 4 0 
3 3 4 1 
3 4 18 3 
3 17 18 3 
3 264 319 207 
3 185 199 170 
3 185 170 111 
3 271 270 242 
3 370 381 359 
3 381 359 358 
3 381 358 348 
3 348 358 322 
3 358 322 321 
3 358 346 321 
3 322 348 296 
3 268 254 241 
3 412 401 400 
3 22 19 8 
3 22 35 19 
3 22 10 8 
3 8 10 7 
3 11 10 7 
3 131 146 71 
3 71 131 70 
3 131 129 70 
3 130 131 129 
3 102 146 71 
3 102 87 71 
3 146 162 102 
3 147 162 102 
3 103 102 87 
3 87 103 72 
3 86 85 55 
3 223 210 209 
3 95 124 94 
3 97 141 96 
3 142 141 97 
3 119 178 89 
3 103 178 89 
3 178 163 119 
3 100 86 85 
3 374 326 313 
3 325 374 313 
3 374 337 325 
3 383 374 337 
3 145 116 115 
3 383 416 374 
3 202 217 173 
3 209 208 180 
3 223 209 208 
3 238 223 208 
3 271 243 242 
3 243 242 228 
3 118 117 86 
3 118 88 86 
3 104 118 88 
3 178 236 163 
3 412 403 401 
3 402 403 401 
3 103 74 72 
3 74 72 57 
3 225 196 195 
3 195 196 167 
3 196 197 167 
3 116 115 100 
3 400 401 390 
3 390 401 371 
3 336 348 311 
3 145 175 132 
3 145 132 116 
3 348 311 296 
3 303 302 232 
3 303 262 232 
3 246 302 232 
3 315 302 246 
3 303 276 262 
3 246 315 245 
3 315 273 245 
3 315 287 273 
3 193 208 180 
3 209 181 180 
3 180 181 151 
3 186 171 157 
3 51 82 38 
3 232 248 218 
3 248 262 232 
3 248 218 176 
3 220 248 176 
3 399 398 378 
3 399 409 398 
3 409 410 399 
3 418 410 409 
3 420 418 410 
3 173 115 99 
3 173 188 115 
3 99 115 85 
3 100 115 85 
3 173 142 99 
3 173 187 142 
3 216 231 172 
3 369 344 331 
3 167 168 138 
3 197 168 167 
3 150 194 121 
3 166 194 121 
3 293 319 207 
3 293 236 207 
3 207 236 163 
3 320 279 265 
3 307 320 279 
3 193 180 135 
3 165 180 135 
3 180 165 151 
3 165 151 136 
3 148 206 147 
3 206 221 148 
3 162 206 147 
3 207 163 118 
3 119 163 118 
3 119 118 104 
3 119 104 89 
3 104 89 58 
3 89 73 58 
3 262 276 248 
3 305 276 248 
3 54 68 38 
3 83 68 38 
3 82 83 38 
3 428 429 387 
3 324 311 285 
3 90 135 76 
3 135 120 90 
3 126 140 125 
3 125 126 95 
3 126 95 66 
3 80 95 66 
3 140 155 126 
3 171 155 126 
3 171 186 155 
3 407 416 386 
3 187 156 142 
3 201 187 156 
3 142 156 141 
3 170 156 141 
3 141 170 111 
3 308 268 254 
3 339 338 314 
3 338 314 258 
3 90 76 60 
3 135 179 120 
3 193 179 135 
3 338 285 258 
3 271 285 258 
3 292 305 278 
3 392 413 391 
3 422 413 391 
3 47 62 33 
3 385 376 375 
3 375 376 353 
3 133 178 103 
3 178 148 133 
3 172 159 158 
3 107 108 62 
3 109 108 62 
3 109 64 62 
3 62 64 33 
3 376 377 366 
3 387 377 376 
3 79 93 78 
3 93 94 79 
3 94 80 79 
3 94 95 80 
3 332 345 292 
3 305 345 292 
3 318 345 305 
3 370 359 347 
3 370 380 347 
3 317 305 276 
3 317 318 305 
3 232 231 218 
3 231 218 174 
3 333 281 280 
3 333 308 280 
3 280 308 266 
3 60 75 59 
3 75 90 60 
3 59 60 45 
3 285 271 270 
3 285 297 270 
3 306 292 278 
3 308 266 254 
3 266 254 238 
3 335 323 310 
3 371 335 323 
3 387 377 356 
3 18 33 17 
3 61 29 14 
3 61 45 29 
3 59 61 45 
3 238 254 210 
3 223 238 210 
3 65 111 50 
3 96 111 65 
3 96 81 65 
3 97 96 81 
3 107 62 46 
3 172 231 159 
3 174 231 159 
3 76 91 60 
3 91 60 46 
3 91 107 46 
3 7 4 2 
3 4 2 0 
3 419 389 356 
3 356 389 344 
3 369 389 344 
3 389 420 369 
3 410 420 369 
3 251 306 221 
3 278 306 221 
3 278 221 206 
3 393 384 373 
3 188 202 173 
3 37 35 22 
3 366 353 342 
3 376 366 353 
3 297 311 285 
3 195 224 194 
3 363 362 351 
3 194 195 166 
3 33 64 18 
3 429 387 356 
3 371 390 335 
3 327 339 314 
3 340 339 327 
3 422 421 411 
3 421 422 415 
3 411 422 391 
3 411 391 370 
3 422 423 415 
3 374 386 364 
3 416 386 374 
3 384 373 363 
3 64 50 35 
3 37 50 35 
3 65 50 37 
3 380 390 335 
3 297 311 296 
3 411 390 370 
3 390 380 370 
3 152 137 136 
3 151 152 136 
3 419 429 356 
3 203 202 188 
3 203 189 188 
3 35 64 18 
3 373 363 362 
