<?xml version="1.0" encoding="UTF-8" standalone="no"?>
<!-- Created with Inkscape (http://www.inkscape.org/) -->

<svg
   xmlns:dc="http://purl.org/dc/elements/1.1/"
   xmlns:cc="http://creativecommons.org/ns#"
   xmlns:rdf="http://www.w3.org/1999/02/22-rdf-syntax-ns#"
   xmlns:svg="http://www.w3.org/2000/svg"
   xmlns="http://www.w3.org/2000/svg"
   xmlns:sodipodi="http://sodipodi.sourceforge.net/DTD/sodipodi-0.dtd"
   xmlns:inkscape="http://www.inkscape.org/namespaces/inkscape"
   width="744.09448819"
   height="1052.3622047"
   id="svg2"
   version="1.1"
   inkscape:version="0.48.3.1 r9886"
   sodipodi:docname="New document 1">
  <defs
     id="defs4" />
  <sodipodi:namedview
     id="base"
     pagecolor="#ffffff"
     bordercolor="#666666"
     borderopacity="1.0"
     inkscape:pageopacity="0.0"
     inkscape:pageshadow="2"
     inkscape:zoom="0.86"
     inkscape:cx="171.79367"
     inkscape:cy="536.91035"
     inkscape:document-units="px"
     inkscape:current-layer="layer1"
     showgrid="false"
     inkscape:window-width="1600"
     inkscape:window-height="1124"
     inkscape:window-x="0"
     inkscape:window-y="24"
     inkscape:window-maximized="1" />
  <metadata
     id="metadata7">
    <rdf:RDF>
      <cc:Work
         rdf:about="">
        <dc:format>image/svg+xml</dc:format>
        <dc:type
           rdf:resource="http://purl.org/dc/dcmitype/StillImage" />
        <dc:title></dc:title>
      </cc:Work>
    </rdf:RDF>
  </metadata>
  <g
     inkscape:label="Layer 1"
     inkscape:groupmode="layer"
     id="layer1">
    <path
       style="fill:none;stroke:#000000;stroke-width:1px;stroke-linecap:butt;stroke-linejoin:miter;stroke-opacity:1"
       d="m 212.7907,413.99009 c -3.33019,-0.66604 -5.50813,-0.57131 -8.13954,-2.32558 -1.59965,-1.06644 -1.1959,-1.79386 -2.32558,-3.48837 -0.30405,-0.45609 -0.85873,-0.70671 -1.16279,-1.16279 -0.48075,-0.72114 -0.64277,-1.63223 -1.16279,-2.32559 -0.98666,-1.31554 -2.5762,-2.12012 -3.48837,-3.48837 -0.48076,-0.72113 -0.64278,-1.63223 -1.16279,-2.32558 -0.98666,-1.31555 -2.32558,-2.32558 -3.48837,-3.48837 -0.3876,-0.3876 -0.98946,-0.64278 -1.1628,-1.16279 -1.67814,-5.03444 2.22291,0.42737 -1.16279,-4.65117 -0.70567,-1.0585 -2.97306,-2.45774 -3.48837,-3.48837 -0.17334,-0.34667 0.17334,-0.81611 0,-1.16279 -0.49027,-0.98055 -1.8353,-1.34503 -2.32558,-2.32558 -0.54814,-1.09629 -0.61465,-2.39208 -1.16279,-3.48837 -0.49028,-0.98055 -1.9789,-1.28555 -2.32558,-2.32558 -0.24514,-0.73542 0.24514,-1.59017 0,-2.32558 -0.17334,-0.52002 -0.91765,-0.67252 -1.16279,-1.16279 -0.17334,-0.34668 0.12257,-0.79509 0,-1.1628 -0.27407,-0.82221 -0.88872,-1.50336 -1.16279,-2.32558 -0.24514,-0.73541 0.34667,-1.63222 0,-2.32558 -0.24514,-0.49027 -0.7752,-0.77519 -1.16279,-1.16279 -1.33041,-1.33041 -1.62162,-1.37648 -2.32559,-3.48837 -0.24513,-0.73541 0.34668,-1.63223 0,-2.32558 -0.24513,-0.49028 -0.98945,-0.64278 -1.16279,-1.16279 -0.24513,-0.73542 0,-1.55039 0,-2.32558 0,-0.3876 0.17334,-0.81612 0,-1.1628 -0.24513,-0.49027 -0.91765,-0.67251 -1.16279,-1.16279 -0.17334,-0.34667 0,-0.77519 0,-1.16279 -0.77519,-0.77519 -1.71747,-1.41341 -2.32558,-2.32558 -0.215,-0.3225 0.12257,-0.79508 0,-1.16279 -0.3876,-0.77519 -0.77519,-1.55039 -1.16279,-2.32558 0,-0.77519 0.24514,-1.59017 0,-2.32558 -0.17334,-0.52002 -0.91765,-0.67252 -1.16279,-1.16279 -0.34668,-0.69336 0.24514,-1.59017 0,-2.32558 -0.27407,-0.82222 -0.88872,-1.50337 -1.16279,-2.32559 -0.2666,-0.7998 0.34303,-2.8023 0,-3.48837 -0.62498,-1.24996 -1.7006,-2.23841 -2.32558,-3.48837 -0.17334,-0.34668 0.17334,-0.81611 0,-1.16279 -0.24514,-0.49028 -0.98945,-0.64277 -1.16279,-1.16279 -0.24514,-0.73541 0.24514,-1.59017 0,-2.32558 -0.34668,-1.04003 -1.83531,-1.34503 -2.32558,-2.32558 -0.17334,-0.34668 0,-0.7752 0,-1.16279 0,-0.7752 0.18801,-1.57354 0,-2.32559 -0.46931,-1.87723 -1.14358,-2.30637 -2.32559,-3.48837 -0.38759,-0.38759 -0.98945,-0.64277 -1.16279,-1.16279 0,-5.29335 0.54815,-0.0665 -1.16279,-3.48837 -0.17334,-0.34668 0,-0.77519 0,-1.16279 0,-0.77519 0.24514,-1.59017 0,-2.32558 -0.17334,-0.52002 -0.91765,-0.67252 -1.16279,-1.16279 -0.17334,-0.34668 0,-0.7752 0,-1.16279 0,-1.16279 0.36771,-2.38526 0,-3.48838 -2.2736,-3.41041 -2.52554,-3.12541 -3.48837,-6.97674 -0.36654,-1.46617 0.36654,-0.85941 0,-2.32558 -0.29727,-1.18909 -0.86552,-2.29928 -1.16279,-3.48837 -0.094,-0.37603 0.094,-0.78677 0,-1.16279 -0.29727,-1.1891 -0.86552,-2.29928 -1.16279,-3.48838 -0.094,-0.37602 0,-0.77519 0,-1.16279 0,-2.29084 0.0384,-3.4116 -1.16279,-5.81395 -0.24514,-0.49028 -0.91765,-0.67252 -1.16279,-1.16279 -0.36542,-0.73084 0.36542,-3.92032 0,-4.65116 -0.24514,-0.49028 -0.91765,-0.67252 -1.16279,-1.16279 -0.17677,-0.35354 0,-3.84824 0,-4.65117 0,-2.32558 0,-4.65116 0,-6.97674 0,-1.16279 0,-2.32558 0,-3.48837 0,-0.3876 -0.17334,-0.81612 0,-1.16279 0.24514,-0.49028 0.91765,-0.67252 1.16279,-1.1628 0.17243,-0.34486 0,-5.85205 0,-6.97674 0,-2.71318 0,-5.42636 0,-8.13953 0,-0.7752 0,-1.55039 0,-2.32559 0,-0.38759 -0.094,-0.78676 0,-1.16279 0.29727,-1.18909 0.86552,-2.29928 1.16279,-3.48837 0.18801,-0.75205 -0.18801,-1.57353 0,-2.32558 0.29727,-1.18909 0.86552,-2.29928 1.16279,-3.48837 0.094,-0.37603 -0.17334,-0.81612 0,-1.16279 0.24514,-0.49028 1.02985,-0.63101 1.16279,-1.16279 0.28202,-1.12808 0,-2.32558 0,-3.48838 0,-0.38759 -0.17334,-0.81611 0,-1.16279 0.49028,-0.98055 1.71747,-1.41341 2.32558,-2.32558 0.48076,-0.72113 0.68204,-1.60445 1.16279,-2.32558 0.30406,-0.45608 0.91765,-0.67251 1.16279,-1.16279 0.17334,-0.34668 -0.12257,-0.79508 0,-1.16279 0.27408,-0.82222 0.88872,-1.50336 1.16279,-2.32558 0.12257,-0.36771 -0.12257,-0.79509 0,-1.16279 2.80753,-8.42258 -0.33523,1.83326 2.32558,-3.48837 0.17334,-0.34668 0,-0.7752 0,-1.1628 0.3876,-0.38759 0.91766,-0.67251 1.1628,-1.16279 0.17333,-0.34667 -0.17334,-0.81611 0,-1.16279 0.24513,-0.49027 0.98945,-0.64277 1.16279,-1.16279 0.48137,-1.44412 -0.38222,-4.2851 0,-5.81395 0.2102,-0.84082 0.88871,-1.50337 1.16279,-2.32558 1.15381,-3.46143 -2.75334,2.38582 1.16279,-3.48837 0.60811,-0.91217 1.8353,-1.34503 2.32558,-2.32559 0.17334,-0.34667 -0.12257,-0.79508 0,-1.16279 1.13454,-3.40363 1.19104,-1.24752 2.32558,-4.65116 0.12257,-0.36771 -0.17334,-0.81611 0,-1.16279 0.51531,-1.03063 2.7827,-2.42987 3.48837,-3.48837 1.12968,-1.69451 0.72593,-2.42194 2.32558,-3.48837 0.72114,-0.48076 1.71274,-0.54995 2.32559,-1.16279 1.09016,-1.09017 1.94122,-3.61974 3.48837,-4.65117 0.72113,-0.48075 1.60445,-0.68203 2.32558,-1.16279 0.45608,-0.30405 0.70671,-0.85873 1.16279,-1.16279 0.72113,-0.48075 1.60445,-0.68203 2.32558,-1.16279 0.91217,-0.60811 1.41341,-1.71747 2.32558,-2.32558 0.72113,-0.48076 1.55039,-0.77519 2.32558,-1.16279 0.7752,-0.3876 1.50337,-0.88872 2.32559,-1.16279 0.3677,-0.12257 0.81611,0.17334 1.16279,0 1.39534,-0.69768 2.09302,-2.7907 3.48837,-3.48837 0.34668,-0.17334 0.79508,0.12256 1.16279,0 0.82222,-0.27408 1.50336,-0.88872 2.32558,-1.1628 0.36771,-0.12256 0.78677,0.094 1.16279,0 1.18909,-0.29727 2.29928,-0.86551 3.48837,-1.16279 0.75205,-0.18801 1.68058,0.43 2.32558,0 0.91217,-0.60811 1.41342,-1.71747 2.32559,-2.32558 0.44842,-0.29895 2.84081,0.21586 3.48837,0 0.82221,-0.27407 1.50336,-0.88872 2.32558,-1.16279 0.73541,-0.24514 1.55039,0 2.32558,0 2.32558,0 4.65116,0 6.97674,0 0.7752,0 1.57354,0.18801 2.32559,0 0.84081,-0.2102 1.48476,-0.95258 2.32558,-1.16279 0.75205,-0.18801 1.55039,0 2.32558,0 2.32558,0 4.65116,0 6.97674,0 5.81396,0 11.62791,0 17.44186,0 23.25582,0 46.51163,0 69.76745,0 6.97674,0 13.95348,0 20.93023,0 1.93798,0 3.87597,0 5.81395,0 1.16279,0 2.40875,-0.43185 3.48837,0 1.01788,0.40715 1.34503,1.83531 2.32558,2.32558 0.69336,0.34668 1.57354,-0.18801 2.32559,0 0.84081,0.21021 1.50336,0.88872 2.32558,1.16279 0.3677,0.12257 0.79508,-0.12257 1.16279,0 0.82222,0.27408 1.50336,0.88872 2.32558,1.16279 0.36771,0.12257 0.79508,-0.12256 1.16279,0 0.82222,0.27408 1.48477,0.95259 2.32558,1.16279 0.75205,0.18802 1.63223,-0.34667 2.32558,0 0.98055,0.49028 1.55039,1.55039 2.32558,2.32559 0.3876,0.38759 0.64278,0.98945 1.1628,1.16279 0.73541,0.24513 1.59016,-0.24514 2.32558,0 0.52001,0.17334 0.67251,0.91765 1.16279,1.16279 0.34667,0.17334 0.81611,-0.17334 1.16279,0 0.705,0.3525 4.15317,4.27766 4.65116,4.65116 0.69336,0.52002 1.60445,0.68204 2.32558,1.16279 0.45609,0.30406 0.67252,0.91765 1.16279,1.16279 0.34668,0.17334 0.84029,-0.215 1.16279,0 0.91217,0.60811 1.55039,1.55039 2.32559,2.32558 0.38759,0.3876 0.64277,0.98946 1.16279,1.16279 0.73541,0.24514 1.59016,-0.24513 2.32558,0 0.53081,0.17694 2.9647,2.9647 3.48837,3.48838 2.32558,2.32558 4.65116,4.65116 6.97674,6.97674 1.93799,1.93798 3.87597,3.87597 5.81396,5.81395 0.77519,0.7752 1.6678,1.44855 2.32558,2.32558 0.52001,0.69336 0.68203,1.60445 1.16279,2.32559 0.98687,1.4803 3.57657,3.21837 4.65116,4.65116 0.52002,0.69335 0.68204,1.60445 1.16279,2.32558 0.30406,0.45608 0.91766,0.67252 1.16279,1.16279 1.89096,3.78192 0.29355,2.76591 2.32558,5.81395 0.60812,0.91217 1.83531,1.34503 2.32559,2.32559 0.54814,1.09629 0.61464,2.39208 1.16279,3.48837 0.24513,0.49027 0.98945,0.64277 1.16279,1.16279 0.24514,0.73541 -0.34668,1.63223 0,2.32558 0.73541,1.47083 2.75296,2.01755 3.48837,3.48837 0.54814,1.09629 0.86552,2.29928 1.16279,3.48837 0.094,0.37603 -0.17334,0.81612 0,1.1628 0.24514,0.49027 0.98945,0.64277 1.16279,1.16279 0.24514,0.73541 -0.34668,1.63222 0,2.32558 0.49028,0.98055 1.71747,1.41341 2.32558,2.32558 0.215,0.3225 -0.12257,0.79508 0,1.16279 0.27407,0.82222 0.88872,1.50336 1.16279,2.32558 0.12257,0.36771 -0.17334,0.81611 0,1.16279 0.24514,0.49028 0.91766,0.67252 1.16279,1.16279 0.37769,0.75538 -0.36878,5.07638 0,5.81396 0.24514,0.49027 0.98946,0.64277 1.16279,1.16279 0.15687,0.47058 0,8.90047 0,9.30232 0,0.7752 -0.34667,1.63223 0,2.32558 0.49028,0.98055 1.71747,1.41342 2.32559,2.32558 0.215,0.3225 -0.076,0.78273 0,1.1628 2.41745,12.08726 -0.11834,-0.35502 2.32558,6.97674 0.33239,0.99716 -0.23605,3.47093 0,4.65116 0.48615,2.43076 0.92905,4.88196 2.32558,6.97675 0.30405,0.45608 0.98945,0.64277 1.16279,1.16279 0.19645,0.58934 0,7.18896 0,8.13953 0,1.12469 0.17243,6.63188 0,6.97675 -0.24514,0.49027 -0.91765,0.67251 -1.16279,1.16279 -0.17334,0.34667 0,0.77519 0,1.16279 0,1.16279 0.28202,2.3603 0,3.48837 -0.13295,0.53178 -0.91765,0.67251 -1.16279,1.16279 -0.17334,0.34668 0,0.77519 0,1.16279 0,0.7752 0.18801,1.57353 0,2.32558 -0.21021,0.84082 -0.99282,1.47572 -1.16279,2.32558 -0.22804,1.14021 0,2.32559 0,3.48838 0,0.38759 0.215,0.84029 0,1.16279 -2.52392,3.78587 -2.16301,0.67506 -3.48837,4.65116 -0.3714,1.1142 0.35907,4.73673 0,5.81395 -0.17334,0.52002 -0.91766,0.67252 -1.1628,1.16279 -0.54814,1.09629 -0.86551,2.29928 -1.16279,3.48838 -0.29069,1.16279 0.5814,2.32558 0,3.48837 -0.49027,0.98055 -1.71747,1.41341 -2.32558,2.32558 -0.43,0.645 0.34668,1.63223 0,2.32558 -0.24514,0.49028 -0.91765,0.67252 -1.16279,1.16279 -0.17334,0.34668 0.12257,0.79509 0,1.16279 -0.27407,0.82222 -0.88872,1.50337 -1.16279,2.32558 -0.12257,0.36771 0.17334,0.81612 0,1.16279 -0.24514,0.49028 -0.91765,0.67252 -1.16279,1.16279 -0.17334,0.34668 0,0.7752 0,1.1628 0,0.77519 0.34668,1.63222 0,2.32558 -0.49028,0.98055 -1.55039,1.55038 -2.32558,2.32558 -0.3876,0.3876 -0.98945,0.64277 -1.16279,1.16279 -0.24514,0.73541 0.24514,1.59017 0,2.32558 -0.34668,1.04003 -1.83531,1.34503 -2.32558,2.32558 -0.17334,0.34668 0,0.7752 0,1.16279 -0.7752,0.7752 -1.71747,1.41342 -2.32558,2.32558 -0.215,0.3225 0.17333,0.81612 0,1.16279 -0.49028,0.98056 -1.97891,1.28555 -2.32559,2.32559 -0.24513,0.73541 0.24514,1.59016 0,2.32558 -0.17333,0.52001 -0.91765,0.67251 -1.16279,1.16279 -0.17334,0.34668 0.215,0.84029 0,1.16279 -0.60811,0.91217 -1.55038,1.55039 -2.32558,2.32558 -0.3876,0.3876 -0.91765,0.67252 -1.16279,1.16279 -0.17334,0.34668 0.12257,0.79508 0,1.16279 -2.80752,8.42258 0.33524,-1.83326 -2.32558,3.48837 -0.17334,0.34668 0.17334,0.81612 0,1.16279 -0.57211,1.14422 -4.07905,3.50695 -4.65116,4.65117 -0.17334,0.34667 0,0.77519 0,1.16279 -0.3876,0.77519 -0.68204,1.60445 -1.16279,2.32558 -1.06644,1.59965 -1.79386,1.19591 -3.48838,2.32558 -1.08815,0.72544 -3.90646,3.90647 -4.65116,4.65116 -1.55039,1.55039 -3.10077,3.10078 -4.65116,4.65117 -0.7752,0.77519 -1.41341,1.71747 -2.32558,2.32558 -0.72113,0.48075 -1.60445,0.68203 -2.32558,1.16279 -0.45609,0.30405 -0.70671,0.85873 -1.16279,1.16279 -0.72114,0.48075 -1.60445,0.68204 -2.32559,1.16279 -0.45608,0.30406 -0.64277,0.98945 -1.16279,1.16279 -0.73541,0.24514 -1.57353,-0.18801 -2.32558,0 -0.84081,0.2102 -1.50336,0.88872 -2.32558,1.16279 -0.36771,0.12257 -0.77519,0 -1.16279,0 -1.16279,0.3876 -2.39208,0.61465 -3.48837,1.16279 -0.98055,0.49028 -1.28555,1.97891 -2.32558,2.32558 -0.73542,0.24514 -1.59017,-0.24513 -2.32559,0 -0.52001,0.17334 -0.64277,0.98946 -1.16279,1.16279 -5.29335,0 -0.0665,-0.54814 -3.48837,1.16279 -0.69335,0.34668 -1.63223,-0.34667 -2.32558,0 -1.39535,0.69768 -2.09302,2.7907 -3.48837,3.48838 -0.93023,0.46511 -2.55814,-0.46512 -3.48837,0 -0.49028,0.24513 -0.64278,0.98945 -1.16279,1.16279 -0.73542,0.24514 -1.57354,-0.18801 -2.32559,0 -0.84081,0.2102 -1.50336,0.88872 -2.32558,1.16279 -1.23559,0.41186 -3.41556,-0.41187 -4.65116,0 -8.42258,2.80752 1.83326,-0.33524 -3.48837,2.32558 -0.30575,0.15287 -4.04312,0 -4.65116,0 -4.54239,0 -0.12276,-0.34668 -4.65117,1.16279 -0.3677,0.12257 -0.77519,0 -1.16279,0 -0.95057,0 -7.55019,-0.19645 -8.13953,0 -0.52002,0.17334 -0.67252,0.91765 -1.16279,1.16279 -0.51742,0.25871 -4.11932,-0.17728 -4.65117,0 -0.52001,0.17334 -0.67251,0.91765 -1.16279,1.16279 -0.33279,0.1664 -5.19277,0 -5.81395,0 -4.26357,0 -8.52713,0 -12.7907,0 -2.32558,0 -4.65116,0 -6.97674,0 -0.7752,0 -1.57354,0.18801 -2.32558,0 -0.84082,-0.2102 -1.63223,-0.64277 -2.32559,-1.16279 -0.87703,-0.65777 -1.55038,-1.55039 -2.32558,-2.32558 -0.38759,-0.3876 -0.67251,-0.91765 -1.16279,-1.16279 -0.69335,-0.34668 -1.59017,0.24514 -2.32558,0 -2.5293,-0.8431 -3.99161,-2.82882 -5.81395,-4.65116 -0.3876,-0.3876 -0.7752,-0.7752 -1.16279,-1.16279 -0.3876,-0.3876 -0.98946,-0.64278 -1.16279,-1.1628 -0.24514,-0.73541 0,-1.55038 0,-2.32558 0,-0.38759 0.215,-0.84029 0,-1.16279 -0.60812,-0.91217 -1.55039,-1.55038 -2.32559,-2.32558 -0.38759,-0.3876 -0.91765,-0.67251 -1.16279,-1.16279 -0.46511,-0.93023 0.46512,-2.55814 0,-3.48837 -0.49027,-0.98055 -1.8353,-1.34503 -2.32558,-2.32558 -0.30689,-0.61379 0.33757,-2.98202 0,-3.48838 -0.60811,-0.91216 -1.71747,-1.41341 -2.32558,-2.32558 -0.31824,-0.47736 0.31703,-4.0171 0,-4.65116 -0.24514,-0.49027 -0.91765,-0.67251 -1.16279,-1.16279 -0.46512,-0.93023 0.46512,-2.55814 0,-3.48837 -0.24514,-0.49028 -0.98945,-0.64278 -1.16279,-1.16279 -0.36771,-1.10312 0,-2.32558 0,-3.48837 0,-2.32559 0,-4.65117 0,-6.97675 0,-0.99801 -0.2063,-8.68341 0,-9.30232 0.17334,-0.52002 0.77519,-0.7752 1.16279,-1.1628 1.33041,-1.3304 1.62162,-1.37647 2.32558,-3.48837 0.12257,-0.3677 -0.17334,-0.81611 0,-1.16279 0.23483,-0.46966 4.61631,-4.61631 4.65116,-4.65116 0.7752,-0.77519 1.55039,-1.55039 2.32559,-2.32558 0.38759,-0.3876 0.67251,-0.91766 1.16279,-1.16279 0.69335,-0.34668 1.63222,0.34667 2.32558,0 2.87372,-1.43687 -0.40137,-1.16279 2.32558,-1.16279 0.27631,0 4.39055,0.1303 4.65116,0 0.49028,-0.24514 0.64278,-0.98946 1.16279,-1.16279 0.58934,-0.19645 7.18897,0 8.13954,0 5.03876,0 10.07752,0 15.11628,0 0.69295,0 7.85397,0.14278 8.13953,0 1.47083,-0.73542 2.01755,-2.75296 3.48837,-3.48838 1.09629,-0.54814 2.39209,-0.61464 3.48838,-1.16279 0.53846,-0.26923 3.96727,-3.96727 4.65116,-4.65116 0.68389,-0.68389 4.38193,-4.1127 4.65116,-4.65116 0.34668,-0.69336 -0.43,-1.68058 0,-2.32558 2.52391,-3.78587 2.16301,-0.67507 3.48837,-4.65117 0.12257,-0.3677 0,-0.77519 0,-1.16279 0.3876,-0.77519 0.88872,-1.50336 1.16279,-2.32558 0.34884,-1.04651 -0.34883,-2.44186 0,-3.48837 0.27408,-0.82222 0.88872,-1.50337 1.1628,-2.32558 0.22873,-0.6862 0,-5.16427 0,-5.81396 0,-3.10077 0,-6.20155 0,-9.30232 0,-3.48837 0,-6.97675 0,-10.46512 0,-0.80293 0.17676,-4.29763 0,-4.65116 -0.24514,-0.49028 -0.91766,-0.67252 -1.1628,-1.16279 -0.17333,-0.34668 0,-0.7752 0,-1.16279 0,-0.7752 0.18802,-1.57353 0,-2.32558 -0.46931,-1.87724 -1.14358,-2.30638 -2.32558,-3.48838 -0.38759,-0.38759 -0.91765,-0.67251 -1.16279,-1.16279 -0.17334,-0.34667 0.17334,-0.81611 0,-1.16279 -0.24514,-0.49027 -0.91765,-0.67251 -1.16279,-1.16279 -0.17334,-0.34667 0.17334,-0.81611 0,-1.16279 -0.24514,-0.49027 -0.91765,-0.67251 -1.16279,-1.16279 -0.54814,-1.09629 -0.61464,-2.39208 -1.16279,-3.48837 -0.24514,-0.49028 -0.77519,-0.77519 -1.16279,-1.16279 -0.3876,-0.3876 -0.77519,-0.7752 -1.16279,-1.16279 -1.16279,-1.16279 -2.32558,-2.32558 -3.48837,-3.48837 -0.7752,-0.7752 -1.71747,-1.41342 -2.32558,-2.32559 -0.48076,-0.72113 -0.68204,-1.60445 -1.1628,-2.32558 -0.30405,-0.45608 -0.77519,-0.77519 -1.16279,-1.16279 -0.38759,-0.38759 -0.7067,-0.85873 -1.16279,-1.16279 -0.72113,-0.48075 -1.60445,-0.68203 -2.32558,-1.16279 -1.34168,-0.89445 -2.14669,-2.59392 -3.48837,-3.48837 -0.3225,-0.215 -0.81611,0.17334 -1.16279,0 -0.49028,-0.24514 -0.67252,-0.91765 -1.16279,-1.16279 -0.77061,-0.38531 -3.6766,0.32485 -4.65116,0 -1.64444,-0.54815 -3.00673,-1.77744 -4.65117,-2.32558 -0.64756,-0.21586 -3.03994,0.29895 -3.48837,0 -0.91217,-0.60812 -1.41341,-1.71747 -2.32558,-2.32559 -0.38856,-0.25904 -2.87478,0.1534 -3.48837,0 -1.1891,-0.29727 -2.29928,-0.86551 -3.48837,-1.16279 -1.26762,-0.3169 -6.24185,0.36745 -6.97675,0 -0.49027,-0.24513 -0.64277,-0.98945 -1.16279,-1.16279 -0.62512,-0.20837 -3.66669,0 -4.65116,0 -3.10078,0 -6.20155,0 -9.30233,0 -8.13953,0 -16.27907,0 -24.4186,0 -2.32558,0 -4.65117,0 -6.97675,0 -1.16279,0 -2.40875,-0.43185 -3.48837,0 -1.89293,1.89294 -2.17156,2.66184 -4.65116,3.48838 -1.10312,0.3677 -2.3603,-0.28202 -3.48837,0 -0.84082,0.2102 -1.50337,0.88871 -2.32559,1.16279 -0.7998,0.2666 -2.8023,-0.34304 -3.48837,0 -0.49027,0.24513 -0.64277,0.98945 -1.16279,1.16279 -5.03444,1.67814 0.42738,-2.22291 -4.65116,1.16279 -0.91217,0.60811 -1.34503,1.8353 -2.32558,2.32558 -0.69336,0.34668 -1.63223,-0.34668 -2.32558,0 -0.49028,0.24514 -0.7752,0.77519 -1.16279,1.16279 -0.3876,0.3876 -0.7752,0.77519 -1.1628,1.16279 -1.55038,1.55039 -3.10077,3.10078 -4.65116,4.65116 -0.77519,0.7752 -1.71747,1.41342 -2.32558,2.32558 -0.48075,0.72114 -0.68204,1.60445 -1.16279,2.32559 -0.60811,0.91216 -1.83531,1.34503 -2.32558,2.32558 -0.34668,0.69335 0.24514,1.59017 0,2.32558 -0.27407,0.82222 -0.95259,1.48476 -1.16279,2.32558 -0.28817,1.15266 0.34321,4.78431 0,5.81395 -0.27407,0.82222 -0.88872,1.50337 -1.16279,2.32559 -0.21868,0.65604 0,2.72429 0,3.48837 0,0.95057 0.19644,7.55019 0,8.13953 -0.34668,1.04003 -1.83531,1.34503 -2.32558,2.32558 -0.17334,0.34668 0,0.7752 0,1.16279 0,0.7752 0,1.55039 0,2.32559 0,1.34596 -0.25953,4.77583 0,5.81395 0.4204,1.68163 1.77743,3.00673 2.32558,4.65116 0.31197,0.93593 -0.37153,3.90812 0,4.65116 0.24514,0.49028 0.91765,0.67252 1.16279,1.1628 0.46511,0.93023 -0.46512,2.55813 0,3.48837 0.51531,1.03062 2.7827,2.42986 3.48837,3.48837 0.48075,0.72113 0.77519,1.55039 1.16279,2.32558 0.3876,0.77519 0.88872,1.50337 1.16279,2.32558 0.24514,0.73542 -0.34668,1.63223 0,2.32558 0.49028,0.98055 1.83531,1.34503 2.32558,2.32559 0.54815,1.09628 0.61465,2.39208 1.16279,3.48837 0.26924,0.53846 3.96728,3.96727 4.65117,4.65116 0.90824,0.90824 2.485,2.81946 3.48837,3.48837 0.72113,0.48076 1.63223,0.64278 2.32558,1.16279 0.87703,0.65778 1.34503,1.83531 2.32558,2.32558 0.69336,0.34668 1.59017,-0.24513 2.32558,0 0.52002,0.17334 0.67252,0.91766 1.16279,1.16279 0.69336,0.34668 1.63223,-0.34667 2.32558,0 0.49028,0.24514 0.67252,0.91766 1.1628,1.1628 0.34667,0.17333 0.79508,-0.12257 1.16279,0 0.82221,0.27407 1.50336,0.88871 2.32558,1.16279 1.10312,0.3677 2.38525,-0.36771 3.48837,0 1.04003,0.34667 1.34503,1.8353 2.32558,2.32558 0.34668,0.17334 0.81611,-0.17334 1.16279,0 0.49028,0.24514 0.67252,0.91765 1.16279,1.16279 0.93023,0.46511 2.55814,-0.46512 3.48837,0 0.49028,0.24514 0.7752,0.77519 1.1628,1.16279 0.77519,0 1.59016,-0.24514 2.32558,0 0.52001,0.17334 0.67251,0.91765 1.16279,1.16279 0.34667,0.17334 0.81611,-0.17334 1.16279,0 0.62103,0.31051 2.8762,2.8762 3.48837,3.48837 0.3876,0.3876 1.55039,0.7752 1.16279,1.16279 -0.3876,0.3876 -1.55039,-1.55038 -1.16279,-1.16279 0.77519,0.7752 1.55039,1.55039 2.32558,2.32558 0.3876,0.3876 1.55039,0.7752 1.16279,1.16279 -0.38759,0.3876 -1.55039,-1.55038 -1.16279,-1.16279 0.7752,0.7752 1.71747,1.41342 2.32558,2.32558 0.215,0.3225 -0.215,0.8403 0,1.1628 0.60811,0.91216 1.71747,1.41341 2.32558,2.32558 0.43,0.645 -0.24513,1.59016 0,2.32558 0.9328,2.79838 1.39279,1.85278 2.32559,4.65116 0.24513,0.73541 -0.34668,1.63223 0,2.32558 0.24513,0.49028 0.98945,0.64278 1.16279,1.16279 0.26368,0.79105 -0.30828,5.1974 0,5.81396 0.49027,0.98055 1.8353,1.34503 2.32558,2.32558 0.17694,0.35387 0,2.9647 0,3.48837 0,2.71318 0,5.42636 0,8.13953 0,1.93799 0,3.87597 0,5.81396 0,0.3876 0.38759,1.16279 0,1.16279 -0.3876,0 0,-1.55039 0,-1.16279 0,0.77519 -0.24514,1.59017 0,2.32558 0.17334,0.52002 0.98945,0.64277 1.16279,1.16279 0.20837,0.62512 0,3.66669 0,4.65116 0,6.29104 0.58139,6.39537 -1.16279,11.62791 -0.17334,0.52002 -0.7752,0.77519 -1.16279,1.16279 -0.3876,0.3876 -0.64278,0.98945 -1.16279,1.16279 -0.73542,0.24514 -1.59017,-0.24514 -2.32559,0 -0.88231,0.29411 -3.58249,4.11683 -4.65116,4.65116 -0.34668,0.17334 -0.77519,0 -1.16279,0 -0.3876,0 -0.77519,0 -1.16279,0 -1.93798,0 -3.87597,0 -5.81395,0 -3.48837,0 -6.97675,0 -10.46512,0 -0.52367,0 -3.13449,0.17694 -3.48837,0 -0.98055,-0.49027 -1.34503,-1.8353 -2.32558,-2.32558 -0.69336,-0.34667 -1.63223,0.34668 -2.32558,0 -5.32164,-2.66082 4.9342,0.48195 -3.48838,-2.32558 -0.3677,-0.12257 -0.77519,0 -1.16279,0 -0.38759,-0.3876 -0.67251,-0.91765 -1.16279,-1.16279 -0.34667,-0.17334 -0.81611,0.17334 -1.16279,0 -0.49027,-0.24514 -0.64277,-0.98945 -1.16279,-1.16279 -1.87494,-0.62498 -3.87597,-0.77519 -5.81395,-1.16279 z"
       id="path2987"
       inkscape:connector-curvature="0"
       inkscape:export-filename="/home/firat/Dropbox/qualitative/img/self-collision.png"
       inkscape:export-xdpi="90"
       inkscape:export-ydpi="90" />
    <path
       sodipodi:type="arc"
       style="fill:none;stroke:#007fff;stroke-width:2.5999999;stroke-linecap:butt;stroke-linejoin:miter;stroke-miterlimit:4;stroke-opacity:1;stroke-dasharray:none"
       id="path2991"
       sodipodi:cx="277.90698"
       sodipodi:cy="191.89706"
       sodipodi:rx="3.4883733"
       sodipodi:ry="3.4883733"
       d="m 281.39536,191.89706 a 3.4883733,3.4883733 0 1 1 -6.97675,0 3.4883733,3.4883733 0 1 1 6.97675,0 z"
       transform="matrix(1.4856725,0,0,1.4856725,-132.64621,-90.873553)"
       inkscape:export-filename="/home/firat/Dropbox/qualitative/img/self-collision.png"
       inkscape:export-xdpi="90"
       inkscape:export-ydpi="90" />
    <path
       style="fill:none;stroke:#007fff;stroke-width:2.58599997;stroke-linecap:butt;stroke-linejoin:miter;stroke-miterlimit:4;stroke-opacity:1;stroke-dasharray:none"
       d="m 265.54718,284.4759 c -6.80274,10.30416 -6.7027,10.20412 -6.7027,10.20412 l 13.70552,0 z"
       id="path2995"
       inkscape:connector-curvature="0"
       inkscape:export-filename="/home/firat/Dropbox/qualitative/img/self-collision.png"
       inkscape:export-xdpi="90"
       inkscape:export-ydpi="90" />
    <path
       style="fill:none;stroke:#007fff;stroke-width:2.75999999;stroke-linecap:butt;stroke-linejoin:miter;stroke-miterlimit:4;stroke-opacity:1;stroke-dasharray:none"
       d="m 265.30835,377.25088 c 0,12.45098 0,12.45098 0,12.45098"
       id="path3765"
       inkscape:connector-curvature="0"
       inkscape:export-filename="/home/firat/Dropbox/qualitative/img/self-collision.png"
       inkscape:export-xdpi="90"
       inkscape:export-ydpi="90" />
    <path
       style="fill:none;stroke:#007fff;stroke-width:2.75999999;stroke-linecap:butt;stroke-linejoin:miter;stroke-miterlimit:4;stroke-opacity:1;stroke-dasharray:none"
       d="m 258.61302,382.78647 c 13.48276,0.2301 13.48276,0 13.48276,0"
       id="path3767"
       inkscape:connector-curvature="0"
       inkscape:export-filename="/home/firat/Dropbox/qualitative/img/self-collision.png"
       inkscape:export-xdpi="90"
       inkscape:export-ydpi="90" />
  </g>
</svg>
