ply
format ascii 1.0
comment Created by Blender 2.76 (sub 0) - www.blender.org, source file: 'blank.blend'
element vertex 44
property float x
property float y
property float z
property float nx
property float ny
property float nz
element face 30
property list uchar uint vertex_indices
end_header
5.000000 0.666667 0.000000 -0.000000 0.000000 1.000000
5.000000 1.000000 0.000000 -0.000000 0.000000 1.000000
4.600000 1.000000 0.000000 -0.000000 0.000000 1.000000
4.600000 0.666667 0.000000 -0.000000 0.000000 1.000000
5.000000 0.333333 0.000000 -0.000000 0.000000 1.000000
4.600000 0.333333 0.000000 -0.000000 0.000000 1.000000
5.000000 0.000000 0.000000 -0.000000 0.000000 1.000000
4.600000 0.000000 0.000000 -0.000000 0.000000 1.000000
4.200000 1.000000 0.000000 -0.000000 0.000000 1.000000
4.200000 0.666667 0.000000 -0.000000 0.000000 1.000000
4.200000 0.333333 0.000000 -0.000000 0.000000 1.000000
4.200000 0.000000 0.000000 -0.000000 0.000000 1.000000
3.800000 1.000000 0.000000 -0.000000 0.000000 1.000000
3.800001 0.666667 0.000000 -0.000000 0.000000 1.000000
3.800000 0.333333 0.000000 -0.000000 0.000000 1.000000
3.800000 0.000000 0.000000 -0.000000 0.000000 1.000000
3.400000 1.000000 0.000000 -0.000000 0.000000 1.000000
3.400000 0.666667 0.000000 -0.000000 0.000000 1.000000
3.400000 0.333333 0.000000 -0.000000 0.000000 1.000000
3.400000 0.000000 0.000000 -0.000000 0.000000 1.000000
3.000000 1.000000 0.000000 -0.000000 0.000000 1.000000
3.000000 0.666667 0.000000 -0.000000 0.000000 1.000000
3.000000 0.333333 0.000000 -0.000000 0.000000 1.000000
3.000000 0.000000 0.000000 -0.000000 0.000000 1.000000
2.600000 1.000000 0.000000 -0.000000 0.000000 1.000000
2.600000 0.666667 0.000000 -0.000000 0.000000 1.000000
2.600000 0.333333 0.000000 -0.000000 0.000000 1.000000
2.600000 0.000000 0.000000 -0.000000 0.000000 1.000000
2.200000 1.000000 0.000000 -0.000000 0.000000 1.000000
2.200000 0.666667 0.000000 -0.000000 0.000000 1.000000
2.200000 0.333333 0.000000 -0.000000 0.000000 1.000000
2.200000 0.000000 0.000000 -0.000000 0.000000 1.000000
1.800000 1.000000 0.000000 -0.000000 0.000000 1.000000
1.800000 0.666667 0.000000 -0.000000 0.000000 1.000000
1.800000 0.333333 0.000000 -0.000000 0.000000 1.000000
1.800000 0.000000 0.000000 -0.000000 0.000000 1.000000
1.400000 1.000000 0.000000 -0.000000 0.000000 1.000000
1.400000 0.666667 0.000000 -0.000000 0.000000 1.000000
1.400000 0.333333 0.000000 -0.000000 0.000000 1.000000
1.400000 0.000000 0.000000 -0.000000 0.000000 1.000000
1.000000 1.000000 0.000000 -0.000000 0.000000 1.000000
1.000000 0.666667 0.000000 -0.000000 0.000000 1.000000
1.000000 0.333333 0.000000 -0.000000 0.000000 1.000000
1.000000 0.000000 0.000000 -0.000000 0.000000 1.000000
4 0 1 2 3
4 4 0 3 5
4 6 4 5 7
4 3 2 8 9
4 5 3 9 10
4 7 5 10 11
4 9 8 12 13
4 10 9 13 14
4 11 10 14 15
4 13 12 16 17
4 14 13 17 18
4 15 14 18 19
4 17 16 20 21
4 18 17 21 22
4 19 18 22 23
4 21 20 24 25
4 22 21 25 26
4 23 22 26 27
4 25 24 28 29
4 26 25 29 30
4 27 26 30 31
4 29 28 32 33
4 30 29 33 34
4 31 30 34 35
4 33 32 36 37
4 34 33 37 38
4 35 34 38 39
4 37 36 40 41
4 38 37 41 42
4 39 38 42 43
