ply
format ascii 1.0
comment Created by Blender 2.77 (sub 0) - www.blender.org, source file: 'blank.blend'
element vertex 88
property float x
property float y
property float z
property float nx
property float ny
property float nz
element face 60
property list uchar uint vertex_indices
end_header
1.000000 1.150985 0.000000 0.000000 0.000000 -1.000000
1.000000 1.000000 0.000000 0.000000 0.000000 -1.000000
0.900000 1.000000 0.000000 0.000000 0.000000 -1.000000
0.900000 1.181181 0.000000 0.000000 0.000000 -1.000000
1.000000 1.349016 0.000000 0.000000 0.000000 -1.000000
0.900000 1.418818 0.000000 0.000000 0.000000 -1.000000
1.000000 1.500000 0.000000 0.000000 0.000000 -1.000000
0.900000 1.600000 0.000000 0.000000 0.000000 -1.000000
1.000000 1.333333 0.000000 -0.000000 0.000000 1.000000
1.000000 1.500000 0.000000 -0.000000 0.000000 1.000000
0.900000 1.600000 0.000000 -0.000000 0.000000 1.000000
0.900000 1.400000 0.000000 -0.000000 0.000000 1.000000
1.000000 1.166667 0.000000 -0.000000 0.000000 1.000000
0.900000 1.200000 0.000000 -0.000000 0.000000 1.000000
1.000000 1.000000 0.000000 -0.000000 0.000000 1.000000
0.900000 1.000000 0.000000 -0.000000 0.000000 1.000000
0.800000 1.000000 0.000000 0.000000 0.000000 -1.000000
0.800000 1.211378 0.000000 0.000000 0.000000 -1.000000
0.800000 1.488622 0.000000 0.000000 0.000000 -1.000000
0.800000 1.700000 0.000000 0.000000 0.000000 -1.000000
0.800000 1.700000 0.000000 -0.000000 0.000000 1.000000
0.800000 1.466666 0.000000 -0.000000 0.000000 1.000000
0.800000 1.233333 0.000000 -0.000000 0.000000 1.000000
0.800000 1.000000 0.000000 -0.000000 0.000000 1.000000
0.700000 1.000000 0.000000 0.000000 0.000000 -1.000000
0.700000 1.241575 0.000000 0.000000 0.000000 -1.000000
0.700000 1.558424 0.000000 0.000000 0.000000 -1.000000
0.700000 1.800000 0.000000 0.000000 0.000000 -1.000000
0.700000 1.800000 0.000000 -0.000000 0.000000 1.000000
0.700000 1.533333 0.000000 -0.000000 0.000000 1.000000
0.700000 1.266667 0.000000 -0.000000 0.000000 1.000000
0.700000 1.000000 0.000000 -0.000000 0.000000 1.000000
0.600000 1.000000 0.000000 0.000000 0.000000 -1.000000
0.600000 1.271772 0.000000 0.000000 0.000000 -1.000000
0.600000 1.628228 0.000000 0.000000 0.000000 -1.000000
0.600000 1.900000 0.000000 0.000000 0.000000 -1.000000
0.600000 1.900000 0.000000 -0.000000 0.000000 1.000000
0.600000 1.600000 0.000000 -0.000000 0.000000 1.000000
0.600000 1.300000 0.000000 -0.000000 0.000000 1.000000
0.600000 1.000000 0.000000 -0.000000 0.000000 1.000000
0.500000 1.000000 0.000000 0.000000 0.000000 -1.000000
0.500000 1.301969 0.000000 0.000000 0.000000 -1.000000
0.500000 1.698031 0.000000 0.000000 0.000000 -1.000000
0.500000 2.000000 0.000000 0.000000 0.000000 -1.000000
0.500000 2.000000 0.000000 -0.000000 0.000000 1.000000
0.500000 1.666667 0.000000 -0.000000 0.000000 1.000000
0.500000 1.333333 0.000000 -0.000000 0.000000 1.000000
0.500000 1.000000 0.000000 -0.000000 0.000000 1.000000
0.400000 1.000000 0.000000 0.000000 0.000000 -1.000000
0.400000 1.332166 0.000000 0.000000 0.000000 -1.000000
0.400000 1.767834 0.000000 0.000000 0.000000 -1.000000
0.400000 2.100000 0.000000 0.000000 0.000000 -1.000000
0.400000 2.100000 0.000000 -0.000000 0.000000 1.000000
0.400000 1.733333 0.000000 -0.000000 0.000000 1.000000
0.400000 1.366667 0.000000 -0.000000 0.000000 1.000000
0.400000 1.000000 0.000000 -0.000000 0.000000 1.000000
0.300000 1.000000 0.000000 0.000000 0.000000 -1.000000
0.300000 1.362363 0.000000 0.000000 0.000000 -1.000000
0.300000 1.837637 0.000000 0.000000 0.000000 -1.000000
0.300000 2.200000 0.000000 0.000000 0.000000 -1.000000
0.300000 2.200000 0.000000 -0.000000 0.000000 1.000000
0.300000 1.800000 0.000000 -0.000000 0.000000 1.000000
0.300000 1.400000 0.000000 -0.000000 0.000000 1.000000
0.300000 1.000000 0.000000 -0.000000 0.000000 1.000000
0.200000 1.000000 0.000000 0.000000 0.000000 -1.000000
0.200000 1.392560 0.000000 0.000000 0.000000 -1.000000
0.200000 1.907441 0.000000 0.000000 0.000000 -1.000000
0.200000 2.300000 0.000000 0.000000 0.000000 -1.000000
0.200000 2.300000 0.000000 -0.000000 0.000000 1.000000
0.200000 1.866667 0.000000 -0.000000 0.000000 1.000000
0.200000 1.433333 0.000000 -0.000000 0.000000 1.000000
0.200000 1.000000 0.000000 -0.000000 0.000000 1.000000
0.100000 1.000000 0.000000 0.000000 0.000000 -1.000000
0.100000 1.422756 0.000000 0.000000 0.000000 -1.000000
0.100000 1.977243 0.000000 0.000000 0.000000 -1.000000
0.100000 2.400000 0.000000 0.000000 0.000000 -1.000000
0.100000 2.400000 0.000000 -0.000000 0.000000 1.000000
0.100000 1.933333 0.000000 -0.000000 0.000000 1.000000
0.100000 1.466667 0.000000 -0.000000 0.000000 1.000000
0.100000 1.000000 0.000000 -0.000000 0.000000 1.000000
0.000000 1.000000 0.000000 0.000000 0.000000 -1.000000
0.000000 1.452953 0.000000 0.000000 0.000000 -1.000000
0.000000 2.047047 0.000000 0.000000 0.000000 -1.000000
0.000000 2.500000 0.000000 0.000000 0.000000 -1.000000
0.000000 2.500000 0.000000 -0.000000 0.000000 1.000000
0.000000 2.000000 0.000000 -0.000000 0.000000 1.000000
0.000000 1.500000 0.000000 -0.000000 0.000000 1.000000
0.000000 1.000000 0.000000 -0.000000 0.000000 1.000000
4 0 1 2 3
4 4 0 3 5
4 6 4 5 7
4 8 9 10 11
4 12 8 11 13
4 14 12 13 15
4 3 2 16 17
4 5 3 17 18
4 7 5 18 19
4 11 10 20 21
4 13 11 21 22
4 15 13 22 23
4 17 16 24 25
4 18 17 25 26
4 19 18 26 27
4 21 20 28 29
4 22 21 29 30
4 23 22 30 31
4 25 24 32 33
4 26 25 33 34
4 27 26 34 35
4 29 28 36 37
4 30 29 37 38
4 31 30 38 39
4 33 32 40 41
4 34 33 41 42
4 35 34 42 43
4 37 36 44 45
4 38 37 45 46
4 39 38 46 47
4 41 40 48 49
4 42 41 49 50
4 43 42 50 51
4 45 44 52 53
4 46 45 53 54
4 47 46 54 55
4 49 48 56 57
4 50 49 57 58
4 51 50 58 59
4 53 52 60 61
4 54 53 61 62
4 55 54 62 63
4 57 56 64 65
4 58 57 65 66
4 59 58 66 67
4 61 60 68 69
4 62 61 69 70
4 63 62 70 71
4 65 64 72 73
4 66 65 73 74
4 67 66 74 75
4 69 68 76 77
4 70 69 77 78
4 71 70 78 79
4 73 72 80 81
4 74 73 81 82
4 75 74 82 83
4 77 76 84 85
4 78 77 85 86
4 79 78 86 87
